<svg width="41" height="35" viewBox="0 0 41 35" fill="none" xmlns="http://www.w3.org/2000/svg">
<path d="M4.32936 5.47622C4.32936 8.53266 4.90388 11.3722 5.28941 14.3708C5.38856 15.142 5.42239 15.8725 5.54354 16.6298C5.67982 17.4815 6.01801 18.3617 6.09416 19.1993C6.32042 21.6882 7.12481 24.4221 7.12481 26.8233M7.12478 27.3315C14.3054 26.3178 21.5986 26.375 28.7542 25.2985C30.0385 25.1053 31.2864 24.8408 32.5803 24.7761C33.4356 24.7333 34.2049 24.3102 35.0228 24.282C35.5731 24.263 38.3056 24.0794 37.6206 24.5361M6.36226 28.6025C6.42402 28.9191 6.48724 31.3606 6.72934 31.4968C7.58749 31.9795 9.71809 31.691 10.7249 31.638C14.0036 31.4654 17.2606 31.1438 20.5654 31.1438C23.8052 31.1438 27.0108 31.0728 30.2365 30.7626C31.8234 30.61 33.4889 30.4212 35.0791 30.3814C35.514 30.3706 37.4366 30.6824 36.6039 30.1273M2.80469 6.49282C3.90105 9.52394 3.52372 12.3065 4.01887 15.3874C4.36206 17.5228 4.58361 19.7356 4.58361 21.896C4.58361 23.7609 4.83774 25.6459 4.83774 27.4728C4.83774 28.3858 4.58073 29.8686 5.09187 30.6353M4.58366 6.23877C6.38084 5.31119 7.8284 5.26761 9.77924 5.22224C12.6513 5.15545 15.4952 4.45985 18.3632 4.45985C19.7808 4.45985 21.101 4.79699 22.5423 4.65751C23.9249 4.52371 25.273 4.25633 26.6649 4.20572C27.4151 4.17844 34.5712 2.28056 34.5712 4.12101C34.5712 6.79752 34.982 9.52116 35.8418 12.0556C36.6257 14.366 36.415 16.7748 36.9148 19.0865C37.1978 20.3952 37.3666 21.6666 37.3666 23.0115C37.3666 23.5422 37.6279 25.8175 37.1125 25.0445M9.15786 6.74713C8.34008 8.32211 7.26909 9.64701 6.30594 11.1238C5.94054 11.6841 6.0228 11.9782 6.61655 11.8298M13.732 5.47622C12.1003 7.62077 10.8836 10.0436 9.21412 12.1684C8.22003 13.4336 6.30112 16.1596 6.61633 17.4204M17.2902 5.72992C15.8779 8.15843 14.6246 10.6683 13.2241 13.0997C12.1453 14.9727 10.7805 16.6369 9.63804 18.4647C8.97046 19.5329 7.92161 20.651 7.43556 21.7967C6.97142 22.8907 8.50689 21.5861 8.64975 21.4861M22.6267 4.96701C20.0891 9.47822 17.2068 13.8963 14.325 18.196C12.9598 20.233 11.3289 22.1086 10.1742 24.281C9.46956 25.6067 9.19056 25.9107 10.6825 26.0599M27.7095 5.73078C27.8036 5.50488 27.9022 5.28078 27.9919 5.05309C28.1913 4.54692 28.0087 4.90237 27.8225 5.20839C26.7691 6.93886 25.6599 8.63152 24.5611 10.3334C22.3208 13.8031 19.9222 17.1907 17.7419 20.6963C16.8816 22.0796 16.1017 23.5474 15.4971 25.0589C15.3374 25.4581 15.0226 25.9262 14.9182 26.3437C14.6616 27.3702 16.1669 24.6351 16.7819 23.7741M32.2839 5.72992C28.9589 10.7409 25.7619 15.7147 22.7116 20.8931C21.7579 22.5123 20.7024 24.1094 19.8879 25.8063C19.803 25.9832 21.6776 24.6728 21.8645 24.5357M33.8086 10.3049C31.1749 14.173 28.7134 18.3524 26.4387 22.4468C26.0846 23.0842 25.6722 23.7076 25.4222 24.3951C25.2283 24.9284 26.927 23.5336 26.947 23.5198M35.3333 15.8953C33.5283 17.8035 31.987 20.5353 30.759 22.8416C30.4385 23.4435 28.9283 25.5833 30.2507 24.7899M36.8582 21.4863C35.8263 22.7527 34.6192 23.8798 33.8086 25.2983" stroke="#A451F7" stroke-width="4.74428" stroke-linecap="round" stroke-linejoin="round"/>
<path d="M4.32936 5.47622C4.32936 8.53266 4.90388 11.3722 5.28941 14.3708C5.38856 15.142 5.42239 15.8725 5.54354 16.6298C5.67982 17.4815 6.01801 18.3617 6.09416 19.1993C6.32042 21.6882 7.12481 24.4221 7.12481 26.8233M7.12478 27.3315C14.3054 26.3178 16.2715 27.6016 23.4271 26.5251C24.7114 26.3319 31.2864 24.8408 32.5803 24.7761C33.4356 24.7333 33.7533 25.3267 34.5712 25.2985C35.1215 25.2795 38.3056 24.0794 37.6206 24.5361M6.36226 28.6025C6.42402 28.9191 6.48724 31.3606 6.72934 31.4968C7.58749 31.9795 9.71809 31.691 10.7249 31.638C14.0036 31.4654 17.2606 31.1438 20.5654 31.1438C23.8052 31.1438 27.0108 31.0728 30.2365 30.7626C31.8234 30.61 33.4889 30.4212 35.0791 30.3814C35.514 30.3706 37.4366 30.6824 36.6039 30.1273M2.80469 6.49282C3.90105 9.52394 3.52372 12.3065 4.01887 15.3874C4.36206 17.5228 4.58361 19.7356 4.58361 21.896C4.58361 23.7609 4.83774 25.6459 4.83774 27.4728C4.83774 28.3858 4.58073 29.8686 5.09187 30.6353M4.58366 6.23877C6.38084 5.31119 7.8284 5.26761 9.77924 5.22224C12.6513 5.15545 15.4952 4.45985 18.3632 4.45985C19.7808 4.45985 21.101 4.79699 22.5423 4.65751C23.9249 4.52371 25.273 4.25633 26.6649 4.20572C27.4151 4.17844 34.5712 2.28056 34.5712 4.12101C34.5712 6.79752 34.982 9.52116 35.8418 12.0556C36.6257 14.366 36.415 16.7748 36.9148 19.0865C37.1978 20.3952 37.3666 21.6666 37.3666 23.0115C37.3666 23.5422 37.6279 25.8175 37.1125 25.0445" stroke="#343434" stroke-width="4.74428" stroke-linecap="round" stroke-linejoin="round"/>
</svg>
