<svg width="63" height="41" viewBox="0 0 63 41" fill="none" xmlns="http://www.w3.org/2000/svg">
<path opacity="0.3" d="M0.7936 19.0399C1.13441 17.5063 2.44193 16.3785 4.00898 16.2666L8.38187 15.9543C9.20709 15.8953 10.027 16.1262 10.7002 16.6071L16.2277 20.5553C17.2885 21.313 18.6791 21.429 19.8508 20.8574L39.7879 11.132C41.0969 10.4934 42.6714 11.1206 43.1828 12.4843C43.6441 13.7144 43.0616 15.0902 41.8573 15.6151L27.033 22.077C24.4242 23.2142 24.1442 26.8039 26.5452 28.3318L32.4384 32.082C33.3826 32.6829 34.5547 32.8038 35.6017 32.4082L55.7782 24.786C58.1024 23.908 60.587 25.6254 60.587 28.1099V32.4925C60.587 34.1862 59.3915 35.6444 57.7307 35.9766L35.228 40.4772C34.3959 40.6436 33.5317 40.5067 32.7917 40.0913L2.48537 23.0772C1.11878 22.31 0.416248 20.738 0.756225 19.2081L0.7936 19.0399Z" fill="#5D593D"/>
<path d="M26.2392 4.01934L4.32812 14.0866L14.9875 17.0475L22.0938 24.7459C25.0548 26.3251 31.4504 29.7203 33.3454 30.6678C35.2405 31.6153 37.2934 35.0106 38.083 36.5897L60.5862 30.6678V23.5616C59.2044 20.9954 56.3224 15.5078 55.8487 14.0866C55.3749 12.6654 46.9658 12.31 42.8205 12.3099C42.0309 10.5334 40.2149 6.3881 39.2673 4.01934C38.3198 1.65058 30.1871 3.03236 26.2392 4.01934Z" fill="white"/>
<path d="M14.3961 16.4553C12.9749 15.034 6.69767 14.6787 3.73672 14.6787L3.14453 17.0475L36.8994 37.1819C36.1098 35.6028 34.1753 31.8522 32.754 29.4835C31.3328 27.1147 24.6608 24.5485 21.5024 23.5616L14.3961 16.4553Z" fill="#B670D9"/>
<path d="M3.73828 15.4397C3.73828 15.4397 7.94914 14.4264 10.0153 15.0168C11.7243 15.505 12.9934 16.1047 14.5497 16.9286L18.052 19.8557C19.2426 21.1163 19.8976 23.0902 20.3832 24.3471M3.73828 15.4397L4.49965 18.4855L13.0523 23.7135L21.5543 28.9929C23.4427 29.8069 25.2265 31.0878 26.8839 32.3091C29.9704 34.5834 33.5543 35.7338 37.2384 36.6058C43.011 37.3025 54.6284 30.1932 59.3942 27.5455C60.2277 27.0825 60.5806 27.333 60.3839 26.2512C60.3839 17.8645 55.2186 13.1704 46.3748 13.6126C45.428 13.6599 43.9722 14.3909 43.0924 14.8307M3.73828 15.4397L24.3034 5.339C25.4588 4.9248 27.2184 4.1381 28.4064 4.0193C29.6587 3.22972 32.874 1.88742 35.7166 2.83492C38.5591 3.78243 39.7539 4.56072 39.9961 4.83143C43.276 7.49252 44.3107 11.0606 43.0924 14.8307M36.9339 35.5398C36.9788 35.5398 34.1404 31.2342 33.8546 30.9378C33.0892 30.1441 32.3753 29.3779 31.5451 28.6199C29.1198 26.4054 25.9494 24.7284 22.6202 24.7284C21.1979 24.7284 21.1543 26.3433 20.3832 24.3471M43.0924 14.8307C42.2784 15.2377 41.5702 15.494 40.7068 15.8121C38.1483 16.7547 35.7147 17.9366 33.3131 19.2298C31.3371 20.2938 29.1886 20.9494 27.1714 21.9199C25.2125 22.8624 23.076 23.6734 20.9451 24.1194L20.3832 24.3471" stroke="#343434" stroke-width="4.30415" stroke-linecap="round" stroke-linejoin="round"/>
</svg>
