<svg width="194" height="199" viewBox="0 0 194 199" fill="none" xmlns="http://www.w3.org/2000/svg">
<path d="M33.6989 20.7814C34.289 20.7224 34.8201 20.6043 35.1742 20.3683C35.5283 20.1913 35.8233 19.9552 36.1184 19.7192C36.3545 19.5421 36.6495 19.3651 36.8856 19.129C37.1216 18.952 37.4167 18.834 37.7707 18.775C38.3609 18.716 38.951 18.6569 39.6001 18.5979C40.1902 18.5979 40.8393 18.6569 41.5475 18.775C42.3737 18.952 42.8457 19.4241 42.8457 20.1322C42.8457 21.0174 42.2556 21.5485 41.0754 21.6665L28.86 23.2599V30.5183C31.1024 30.2233 33.1088 29.9282 34.8792 29.6331C36.6495 29.3971 37.9478 29.2201 38.892 28.984C40.3082 28.748 41.3114 28.4529 41.9606 28.2169C42.5507 27.9808 43.0818 27.7448 43.5539 27.4497C43.8489 27.2727 44.144 27.1546 44.3801 27.0366C44.5571 26.9776 44.7931 26.9186 45.0882 26.8596C45.3833 26.8596 45.7963 26.8006 46.3274 26.7416C46.7995 26.7416 47.2716 26.6825 47.8618 26.6825H49.4551C49.9272 26.7416 50.3993 26.8006 50.8123 26.8596C51.8155 27.0956 52.3466 27.5087 52.3466 28.0988C52.3466 29.043 51.5795 29.6331 50.1042 29.8102C48.8059 29.9282 47.3897 30.1052 45.7373 30.2823C44.026 30.5183 42.2556 30.6953 40.3673 30.8724C37.8888 31.2265 35.2922 31.5215 32.5777 31.8756L24.7291 33.0558C22.1916 33.4689 19.8902 33.823 17.8838 34.118C15.8184 34.4721 14.225 34.7672 13.1038 35.0032C11.9236 35.3573 11.0384 35.7114 10.3303 36.0654C9.74014 36.4195 9.15003 36.6555 8.55991 36.8326C7.91078 37.0686 7.26165 37.1276 6.55351 36.8916C5.31426 36.5965 4.25205 36.2425 3.42588 35.8294C2.48169 35.4753 1.89158 35.1212 1.53751 34.7672C1.24245 34.6491 1.12442 34.4721 1.12442 34.177C1.12442 33.705 1.53751 33.4099 2.48169 33.4099C3.60292 33.4099 4.90118 33.4099 6.31746 33.2919C7.67473 33.2919 8.85497 33.1738 9.91718 33.0558C10.3893 33.0558 11.1564 32.9378 12.2186 32.7608C13.2218 32.6427 14.4611 32.5247 15.8774 32.2887C17.2936 32.1706 18.828 31.9346 20.5393 31.6985L25.5553 30.9904V23.732L16.5855 24.9122C13.812 25.2663 12.4547 23.968 12.4547 21.0174V13.4049C12.4547 12.3427 12.0416 11.5165 11.3335 11.0444C10.5663 10.6313 9.38607 10.2773 7.73374 9.92321C7.14363 9.86419 6.90758 9.62814 6.90758 9.21506C6.90758 8.74297 7.37967 8.44791 8.38287 8.32989C8.67793 8.32989 9.38607 8.27087 10.4483 8.21186C11.5105 8.21186 12.5727 8.21186 13.6349 8.32989C13.812 8.44791 13.989 8.44791 14.166 8.3889C14.284 8.3889 14.4611 8.44791 14.5791 8.50692L32.5187 6.02843C33.1678 5.96942 33.6989 5.79238 34.112 5.55633C34.4661 5.32029 34.8201 5.08424 35.1742 4.73017C35.7053 4.31709 36.1774 4.08104 36.5905 3.96302C37.1806 3.904 37.7707 3.84499 38.4199 3.78598C39.01 3.78598 39.6591 3.84499 40.3673 3.96302C40.8393 4.08104 41.1344 4.25808 41.3705 4.49412C41.5475 4.78918 41.6655 5.08424 41.6655 5.3793C41.6655 6.26447 41.0754 6.73657 39.8952 6.85459L15.7593 10.1593V21.1945C15.7593 22.6107 16.4085 23.2009 17.8248 22.9648L33.6989 20.7814ZM41.1934 48.6349C41.1934 49.166 41.1344 49.8742 41.0754 50.7003C40.9574 51.5265 40.7803 52.3527 40.6623 53.1788C40.4263 53.946 40.1902 54.6541 39.9542 55.2442C39.6591 55.8344 39.3641 56.1294 39.01 56.1884C38.5969 56.2474 38.3018 55.8344 38.1838 54.9492C38.0068 54.005 37.9478 52.2937 37.9478 49.8152V39.5471L19.241 42.4977C18.7689 42.6747 18.3559 42.8518 18.0018 42.9698C17.6477 43.2058 17.2936 43.3829 16.9986 43.5599C16.5855 43.855 16.2314 44.091 15.8774 44.209C15.4643 44.3861 14.9922 44.3861 14.4611 44.209C13.5169 44.032 12.6317 43.737 11.6875 43.3829C10.6843 43.0878 10.0352 42.7928 9.68113 42.4387C9.44508 42.3207 9.32706 42.1436 9.32706 41.9076C9.32706 41.7896 9.38607 41.6125 9.56311 41.4945C9.68113 41.3765 9.91718 41.3765 10.3893 41.3765C11.2744 41.4355 12.2186 41.4355 13.2808 41.3175C14.225 41.2585 15.1692 41.1404 16.0544 41.0224C16.7625 40.9634 17.9428 40.7864 19.5951 40.5503C21.1884 40.3733 22.8998 40.1372 24.7881 39.8422C26.5585 39.6061 28.3289 39.3111 30.0992 39.016C31.8105 38.78 33.1678 38.5439 34.171 38.3079C34.8201 38.1308 35.3513 37.9538 35.7643 37.8358C36.1184 37.7178 36.4725 37.5997 36.8265 37.4227L37.5347 37.0686C37.7117 37.0096 37.9478 36.9506 38.2428 36.8916C38.5969 36.8916 39.069 36.8326 39.6001 36.8326C40.0722 36.8326 40.4853 36.8916 40.8984 36.8916C41.2524 37.0096 41.6065 37.0686 41.9016 37.1866C42.1376 37.3637 42.3146 37.5407 42.3146 37.7768C42.3146 38.0128 42.2556 38.1898 42.2556 38.3079C42.1376 38.5439 42.0786 38.721 42.0196 38.957C41.9016 39.3111 41.7835 39.6651 41.6655 40.1372C41.5475 40.6093 41.4295 41.2585 41.4295 42.0256L41.1934 48.6349ZM85.5956 24.086C84.9465 24.3221 84.4154 24.5581 83.9433 24.9122C83.7073 25.1482 83.5302 25.2663 83.2942 25.3253C82.9991 25.4433 82.645 25.5023 82.232 25.3843C81.6418 25.2663 80.9337 25.0302 80.1075 24.7942C79.2224 24.5581 78.5732 24.3221 78.1601 24.027C77.9831 23.968 77.8651 23.85 77.7471 23.732C77.629 23.6139 77.57 23.4959 77.57 23.2599C77.57 23.0828 77.7471 22.9648 78.1011 22.8468C78.5142 22.7878 79.1043 22.7288 79.8715 22.6107C80.5796 22.6107 81.1107 22.5517 81.4648 22.4927C82.0549 22.4337 82.7631 22.3157 83.6482 22.1977C84.4744 22.1386 85.3596 22.0206 86.3038 21.9026C87.1889 21.7846 88.1331 21.6665 89.0773 21.4895C89.9625 21.3715 90.7887 21.2535 91.5558 21.1354V5.79238C91.5558 4.84819 91.1427 4.14005 90.3166 3.66796C89.4904 3.19586 88.2512 2.78278 86.7169 2.3697C86.4808 2.31069 86.2448 2.25167 86.1267 2.13365C85.9497 2.07464 85.8907 1.8976 85.8907 1.66156C85.8907 1.18946 86.3628 0.894402 87.366 0.77638C87.661 0.717369 88.3692 0.658358 89.4314 0.599343C90.4936 0.599343 91.5558 0.658358 92.618 0.77638C93.3262 0.894402 93.9753 1.01243 94.5064 1.13045C94.9785 1.3665 95.2736 1.66156 95.2736 2.07464C95.2736 2.66476 95.1555 3.19586 95.0375 3.60894C94.8015 4.08104 94.7425 4.73017 94.7425 5.49732V41.2585V44.7402C94.6834 46.1564 94.6244 47.5137 94.5064 48.871C94.3884 50.1692 94.1523 51.3495 93.9163 52.3527C93.5622 53.2969 93.1491 53.769 92.618 53.887C91.9099 53.946 91.5558 51.6445 91.5558 47.0416V22.9648C90.6116 23.0828 89.6084 23.2599 88.6052 23.3779C87.543 23.6139 86.5398 23.85 85.5956 24.086ZM71.7279 15.1162C71.2558 16.8276 70.7247 18.5389 70.0165 20.2503C69.2494 22.0206 68.3642 23.791 67.361 25.5613C67.8331 26.0334 68.3642 26.5645 69.0133 27.1546C69.6034 27.7448 70.2526 28.3349 70.9017 28.866C71.4918 29.4561 72.0819 29.9282 72.613 30.3413C73.0851 30.8134 73.4392 31.0494 73.6752 31.1674C73.9703 31.4035 74.2654 31.5215 74.6194 31.5805C74.9145 31.6985 75.2686 31.8166 75.6226 31.8756C76.0357 31.9936 76.4488 32.0526 76.8619 32.1706C77.216 32.3477 77.511 32.5837 77.8651 32.9378C78.3962 33.5279 78.9273 34.2361 79.5174 35.0622C79.9895 35.8884 80.4616 36.8326 80.9337 37.7768C81.1107 38.2489 81.2288 38.721 81.2288 39.075C81.1697 39.5471 80.9927 39.8422 80.7567 40.0192C80.5206 40.2553 80.2256 40.3143 79.9895 40.1962C79.6944 40.1962 79.3994 40.0782 79.1633 39.9012C78.8683 39.7832 78.6322 39.5471 78.3962 39.3111C78.1601 39.075 77.9241 38.898 77.8061 38.721L66.3578 27.3907C64.3514 30.7544 62.0499 33.941 59.5714 36.8916C57.0339 39.9602 54.4964 42.6157 52.0179 44.9762C51.5458 45.4483 51.1328 45.5663 50.8377 45.3303C50.7197 45.2713 50.7197 45.1532 50.7197 44.9172C50.7197 44.7402 50.8377 44.5041 51.1328 44.15C52.6671 42.4977 54.3194 40.4913 55.9717 38.2489C57.565 36.0064 59.0993 33.705 60.5746 31.2265C61.9909 28.807 63.2892 26.3875 64.4694 23.909C65.5906 21.4895 66.4758 19.2471 67.1249 17.1226C67.243 16.5915 67.302 16.1194 67.302 15.6473C67.243 15.2343 67.0659 14.9392 66.7709 14.7622C66.3578 14.4671 65.8267 14.1721 65.2366 13.936C64.5284 13.759 63.8203 13.5229 63.1121 13.2869C62.522 13.1098 62.345 12.8148 62.463 12.4607C62.581 12.1066 62.9941 11.8706 63.7613 11.8116C64.1153 11.8116 64.5874 11.8706 65.1776 11.8706C65.7087 11.9296 66.2988 11.9886 67.0069 12.0476C67.597 12.1657 68.2462 12.2837 68.9543 12.4017C69.6034 12.5197 70.2526 12.6968 70.8427 12.8148C71.4328 13.0508 71.7279 13.2869 71.8459 13.6409C71.9049 13.995 71.8459 14.5261 71.7279 15.1162ZM143.334 21.7846C143.925 21.7256 144.397 21.6075 144.81 21.3715C145.164 21.1945 145.459 20.9584 145.754 20.7224C145.99 20.4863 146.285 20.3093 146.521 20.0732C146.757 19.8962 147.052 19.7782 147.406 19.7192C147.996 19.6601 148.587 19.6011 149.236 19.5421C149.826 19.5421 150.475 19.6011 151.183 19.7192C151.655 19.8372 151.95 20.0142 152.186 20.2503C152.363 20.5453 152.481 20.8404 152.481 21.1354C152.481 22.0206 151.891 22.4927 150.711 22.6107L140.443 23.909V41.7896V45.2713C140.384 46.6875 140.325 48.0448 140.207 49.4021C140.089 50.7003 139.853 51.8216 139.617 52.8248C139.263 53.769 138.85 54.241 138.318 54.3591C137.61 54.4181 137.256 52.1166 137.256 47.5137V37.1866C132.83 38.78 128.464 40.1962 124.097 41.3765C119.671 42.6747 115.127 43.796 110.524 44.8582C109.934 45.0352 109.462 45.2122 109.108 45.3893C108.636 45.6253 108.282 45.8024 107.986 46.0384C107.514 46.3335 107.101 46.5695 106.747 46.6875C106.275 46.9236 105.744 46.9236 105.095 46.7466C103.915 46.4515 102.793 46.0974 101.731 45.6253C100.669 45.2713 99.9608 44.9172 99.6658 44.5631C99.5478 44.5041 99.4887 44.3861 99.4297 44.2681C99.3117 44.209 99.2527 44.091 99.2527 43.914C99.1937 43.6189 99.3117 43.3829 99.6658 43.2649C99.9018 43.1468 100.256 43.1468 100.61 43.1468C101.672 43.2058 102.852 43.2058 104.033 43.0878C105.154 43.0288 106.216 42.9108 107.278 42.7928C108.163 42.6747 109.285 42.4977 110.701 42.2026C111.999 41.9666 113.593 41.6715 115.363 41.3175V31.8756C113.711 31.9936 112.176 31.8166 110.819 31.3445C109.403 30.9314 108.222 30.2823 107.278 29.3971C106.216 28.5709 105.449 27.5677 104.918 26.3285C104.328 25.1482 104.092 23.791 104.092 22.2567C104.092 20.6633 104.387 19.129 105.095 17.6537C105.685 16.2375 106.57 14.9982 107.75 13.818C108.813 12.7558 110.17 11.8116 111.763 11.0444C113.298 10.3363 114.95 9.86419 116.838 9.62814C118.609 9.3921 120.32 9.45111 121.913 9.80518C123.448 10.1593 124.746 10.7494 125.926 11.5755C126.988 12.4607 127.873 13.5229 128.523 14.7622C129.113 16.0604 129.467 17.5357 129.467 19.129C129.467 20.6633 129.172 22.0206 128.7 23.3189C128.109 24.6761 127.401 25.8564 126.457 26.9186C125.513 28.0398 124.333 28.984 123.034 29.6921C121.677 30.5183 120.202 31.0494 118.668 31.4035V40.5503C120.202 40.1962 121.795 39.8422 123.448 39.3701C125.041 39.016 126.634 38.6029 128.286 38.1308C129.88 37.7178 131.473 37.3047 133.007 36.8326C134.483 36.4195 135.899 36.0064 137.256 35.5343V6.26447C137.256 5.32029 136.843 4.61214 136.017 4.14005C135.191 3.66796 133.952 3.25487 132.417 2.84179C132.181 2.78278 131.945 2.72377 131.827 2.60575C131.65 2.54673 131.591 2.3697 131.591 2.13365C131.591 1.66156 132.063 1.3665 133.066 1.24847C133.362 1.24847 134.07 1.18946 135.132 1.13045C136.194 1.13045 137.256 1.13045 138.318 1.24847C139.027 1.3665 139.676 1.48452 140.207 1.60254C140.679 1.83859 140.974 2.13365 140.974 2.54673C140.974 3.13685 140.856 3.66796 140.738 4.14005C140.502 4.61214 140.443 5.26127 140.443 6.02843V22.1386L143.334 21.7846ZM107.632 21.8436C107.632 23.2599 107.868 24.4401 108.4 25.4433C108.872 26.5055 109.521 27.3317 110.347 27.9218C111.173 28.6299 112.117 29.043 113.298 29.2791C114.36 29.5741 115.54 29.6331 116.838 29.4561C118.136 29.3381 119.317 28.984 120.497 28.3939C121.559 27.9218 122.562 27.2137 123.389 26.3285C124.215 25.5023 124.864 24.5581 125.336 23.3779C125.808 22.2567 126.044 21.0174 126.044 19.6011C126.044 18.2439 125.808 17.0636 125.336 16.0014C124.864 14.9982 124.215 14.1721 123.389 13.4639C122.562 12.8738 121.559 12.4017 120.497 12.1066C119.317 11.8706 118.136 11.8706 116.838 11.9886C115.54 12.1657 114.36 12.5197 113.298 12.9918C112.117 13.5819 111.173 14.2901 110.347 15.1162C109.521 16.0014 108.872 17.0046 108.4 18.1258C107.868 19.3061 107.632 20.5453 107.632 21.8436ZM21.9556 158.762C22.4867 158.644 22.8998 158.526 23.2538 158.408C23.5489 158.29 23.844 158.172 24.139 157.936C24.3161 157.818 24.5521 157.7 24.7881 157.582C25.0242 157.464 25.2012 157.405 25.3783 157.405C25.8504 157.405 26.3225 157.346 26.7945 157.287H28.1518C28.5059 157.346 28.86 157.405 29.155 157.523C29.3911 157.7 29.5091 157.936 29.5091 158.172C29.5091 158.526 29.3911 158.762 29.273 158.998C29.037 159.293 28.86 159.588 28.6829 159.824L27.9748 160.828C27.0896 162.48 26.1454 164.014 25.2012 165.431C24.139 166.847 23.0768 168.263 21.9556 169.561C22.1916 169.797 22.4867 169.974 22.7817 170.151C23.0178 170.387 23.2538 170.565 23.6079 170.742C24.198 171.273 24.8472 171.686 25.4373 171.981C25.9684 172.335 26.3225 172.571 26.5585 172.63C26.9126 172.866 27.2666 172.925 27.6207 172.866C27.9158 172.866 28.2698 172.925 28.6829 172.984C29.096 173.043 29.5091 173.043 29.9222 173.043C30.2762 173.102 30.6303 173.279 30.9844 173.574C31.2204 173.869 31.5155 174.223 31.8696 174.577C32.1056 174.99 32.4007 175.403 32.6957 175.758L33.2858 176.997C33.4039 177.469 33.5219 177.823 33.5219 178.059C33.5219 178.413 33.4629 178.649 33.3449 178.767C33.1678 178.885 32.9908 179.003 32.8137 179.003C32.3417 179.121 31.5745 178.767 30.5123 177.941L20.7163 170.919C18.1198 173.751 15.3463 176.348 12.3957 178.59C9.44508 180.892 6.25845 182.957 2.95379 184.845C2.48169 185.199 2.18664 185.258 2.0096 185.022C1.77355 184.727 1.89158 184.432 2.36367 184.078C7.08461 180.656 11.3335 176.938 15.1102 173.043C18.887 169.207 21.9556 164.899 24.3161 160.178L21.3065 160.533C20.2442 160.71 19.182 160.887 18.2378 161.005C17.2346 161.182 16.3495 161.359 15.5233 161.477C14.6381 161.713 13.93 161.89 13.3399 162.008C12.8088 162.185 12.3957 162.362 12.1006 162.48C11.7465 162.716 11.3925 162.893 11.0974 163.07C10.7433 163.365 10.3893 163.601 10.0352 163.719C9.62212 163.896 9.15003 163.896 8.61892 163.719C7.67473 163.542 6.78955 163.247 5.90438 162.893C4.96019 162.539 4.25205 162.244 3.89798 162.008C3.66193 161.89 3.54391 161.713 3.54391 161.477C3.54391 161.359 3.60292 161.182 3.77995 161.064C3.89798 160.946 4.13402 160.946 4.60612 160.946C5.4913 161.005 6.43548 161.005 7.4977 160.887C8.44188 160.828 9.38607 160.71 10.2712 160.592C11.6875 160.474 13.4579 160.178 15.5823 159.824C17.7067 159.529 19.8312 159.175 21.9556 158.762ZM42.2556 185.022C41.9016 185.14 41.6655 184.786 41.4885 183.96C41.2524 183.193 41.1934 181.659 41.1934 179.357V149.91C41.1934 148.966 40.7803 148.258 39.9542 147.727C39.128 147.255 37.8888 146.842 36.3545 146.488C35.7643 146.37 35.5283 146.134 35.5283 145.721C35.5283 145.307 36.0004 145.012 37.0036 144.835C37.2986 144.835 38.0068 144.776 39.069 144.717C40.1312 144.717 41.1934 144.776 42.2556 144.835C42.9638 144.953 43.6129 145.071 44.144 145.248C44.6161 145.485 44.9112 145.78 44.9112 146.193C44.9112 146.783 44.7931 147.314 44.6751 147.727C44.4391 148.199 44.3801 148.848 44.3801 149.615V174.636V177.587C44.321 178.767 44.262 179.888 44.144 180.951C43.967 182.072 43.7309 183.016 43.4949 183.783C43.1408 184.609 42.7277 185.022 42.2556 185.022ZM38.8329 194.818C39.4231 194.7 39.8952 194.582 40.3082 194.405C40.6623 194.169 40.9574 193.992 41.2524 193.756C41.4885 193.52 41.7835 193.284 42.0196 193.107C42.2556 192.871 42.5507 192.753 42.9048 192.753C43.4949 192.635 44.085 192.635 44.7341 192.635C45.3242 192.576 45.9734 192.635 46.6815 192.753C47.1536 192.812 47.4487 192.989 47.6847 193.284C47.8618 193.52 47.9798 193.815 47.9798 194.169C47.9798 194.995 47.3897 195.467 46.2094 195.586L22.8998 198.713C20.1262 199.067 18.7689 197.769 18.7689 194.818V188.799C18.7689 187.737 18.3559 186.97 17.6477 186.498C16.8806 186.085 15.7003 185.731 14.048 185.376C13.4579 185.317 13.2218 185.081 13.2218 184.668C13.2218 184.196 13.6939 183.901 14.6971 183.783C14.9922 183.724 15.7003 183.665 16.7625 183.606C17.8248 183.606 18.887 183.665 19.9492 183.783C20.6573 183.901 21.1884 184.019 21.5425 184.196C21.8966 184.432 22.0736 184.845 22.0736 185.376V194.995C22.0736 196.353 22.7227 196.943 24.139 196.766L38.8329 194.818ZM24.4931 152.566C24.4931 153.038 24.257 153.392 23.844 153.628C23.3719 153.982 22.8998 154.218 22.3097 154.336C20.8934 154.749 19.5361 155.044 18.1788 155.221C16.7625 155.458 15.2282 155.635 13.5759 155.812C12.8088 155.93 12.0416 155.694 11.2154 155.103C10.3893 154.631 9.74014 154.041 9.32706 153.392C9.15003 153.274 9.09101 153.038 9.20904 152.802C9.32706 152.566 9.68113 152.507 10.3893 152.625C11.2154 152.743 12.3367 152.802 13.6349 152.802C14.048 152.861 14.6381 152.861 15.4643 152.743C16.1724 152.684 16.9396 152.625 17.7067 152.507C18.3559 152.448 19.123 152.33 20.0082 152.153C20.8344 152.035 21.5425 151.917 22.2506 151.799C22.8408 151.74 23.3719 151.74 23.844 151.799C24.257 151.917 24.4931 152.212 24.4931 152.566ZM92.618 149.674C92.618 148.73 92.2049 148.022 91.3788 147.491C90.5526 147.019 89.3134 146.606 87.7791 146.252C87.543 146.193 87.307 146.134 87.1889 146.016C87.0119 145.957 86.9529 145.78 86.9529 145.544C86.9529 145.071 87.425 144.776 88.4282 144.658C88.7233 144.599 89.4314 144.54 90.4936 144.481C91.5558 144.481 92.618 144.54 93.6802 144.658C94.3884 144.776 95.0375 144.894 95.5686 145.012C96.0407 145.248 96.3358 145.544 96.3358 145.957C96.3358 146.547 96.2177 147.078 96.0997 147.491C95.8637 147.963 95.8047 148.612 95.8047 149.379V185.14V188.622C95.7457 190.038 95.6866 191.396 95.5686 192.753C95.4506 194.051 95.2145 195.231 94.9785 196.235C94.6244 197.179 94.2113 197.651 93.6802 197.769C92.9721 197.828 92.618 195.527 92.618 190.924V168.263L85.4776 169.148V183.075V186.616C85.4186 188.032 85.3596 189.389 85.2416 190.688C85.1235 191.986 84.8875 193.166 84.6514 194.169C84.2974 195.113 83.8843 195.586 83.3532 195.645C82.645 195.763 82.291 193.461 82.291 188.799V154.572C82.291 153.628 81.8779 152.92 81.0517 152.448C80.2256 151.976 78.9863 151.563 77.452 151.15C77.216 151.091 76.9799 151.032 76.8619 150.914C76.6848 150.855 76.6258 150.678 76.6258 150.442C76.6258 149.969 77.0979 149.674 78.1011 149.556C78.3962 149.556 79.1043 149.497 80.1665 149.438C81.2288 149.438 82.291 149.497 83.3532 149.556C84.0613 149.674 84.7105 149.792 85.2416 149.969C85.7137 150.205 86.0087 150.501 86.0087 150.914C86.0087 151.504 85.8907 152.035 85.7727 152.448C85.5366 152.92 85.4776 153.569 85.4776 154.336V166.965L92.618 166.08V149.674ZM55.3226 178.885C55.3226 177.528 55.5586 176.171 56.0897 174.872C56.5618 173.633 57.329 172.512 58.2732 171.45C59.1584 170.506 60.2796 169.679 61.5778 168.971C62.8761 168.322 64.2924 167.909 65.8857 167.673C67.42 167.496 68.8953 167.555 70.2526 167.909C71.5508 168.263 72.672 168.853 73.6162 169.561C74.5014 170.387 75.2096 171.332 75.7407 172.453C76.2128 173.633 76.5078 174.872 76.5078 176.23C76.5078 177.646 76.2128 178.944 75.7407 180.242C75.2096 181.541 74.5014 182.721 73.6162 183.724C72.672 184.786 71.5508 185.672 70.2526 186.38C68.8953 187.088 67.42 187.56 65.8857 187.737C64.2334 187.973 62.8171 187.855 61.5188 187.442C60.2206 187.088 59.0993 186.498 58.2142 185.672C57.27 184.904 56.5618 183.901 56.0897 182.721C55.5586 181.541 55.3226 180.301 55.3226 178.885ZM58.7453 178.413C58.7453 180.656 59.3354 182.426 60.6336 183.724C61.8139 185.022 63.5842 185.554 65.8857 185.258C68.2462 184.963 70.0165 184.019 71.2558 182.426C72.436 180.892 73.0851 178.944 73.0851 176.702C73.0851 174.577 72.436 172.807 71.2558 171.509C70.0165 170.269 68.2462 169.797 65.8857 170.033C63.5842 170.328 61.8139 171.273 60.6336 172.807C59.3354 174.4 58.7453 176.289 58.7453 178.413ZM70.1345 160.828C70.7837 160.651 71.3148 160.414 71.7279 160.178C72.0819 160.001 72.436 159.824 72.7901 159.588C73.0261 159.47 73.3212 159.293 73.5572 159.175C73.7343 159.057 73.9703 158.998 74.3244 158.939C74.9145 158.88 75.5636 158.821 76.2718 158.762C76.8619 158.762 77.57 158.821 78.2782 158.939C79.2224 159.175 79.6944 159.647 79.6944 160.414C79.6944 161.241 79.0453 161.772 77.8061 161.949L75.0915 162.244C72.0229 162.657 69.2494 163.07 66.8299 163.424C64.3514 163.837 62.1089 164.25 60.1025 164.663C59.6304 164.781 59.2174 164.899 58.8633 165.076C58.4502 165.312 58.0961 165.49 57.7421 165.726C57.27 166.021 56.8569 166.257 56.5028 166.375C56.0307 166.611 55.5586 166.611 54.9685 166.434C54.0243 166.257 53.0801 165.962 52.136 165.49C51.1328 165.135 50.4246 164.781 50.0705 164.427C49.8345 164.309 49.7165 164.132 49.7165 163.896C49.7165 163.483 50.0705 163.306 50.8377 163.306C51.7819 163.365 52.8441 163.365 53.9063 163.247C54.9095 163.188 55.8537 163.07 56.7979 162.952L58.1552 162.834C59.2174 162.716 60.2206 162.539 61.1057 162.421C61.9319 162.303 62.7581 162.185 63.6432 162.008C64.4694 161.89 65.3546 161.772 66.4168 161.536C67.42 161.418 68.6592 161.182 70.1345 160.828ZM71.9049 154.631C71.9049 155.103 71.6689 155.458 71.2558 155.694C70.7837 155.989 70.2526 156.225 69.7215 156.402C68.3642 156.756 67.0659 157.051 65.8267 157.228C64.5284 157.464 63.1121 157.641 61.5778 157.759C60.8107 157.877 60.0435 157.7 59.2174 157.11C58.3912 156.579 57.7421 155.989 57.329 155.339C57.152 155.221 57.0929 155.103 57.211 154.867C57.27 154.749 57.388 154.631 57.565 154.513C57.6831 154.513 57.9781 154.513 58.3912 154.572C59.2174 154.69 60.3386 154.749 61.6368 154.749C62.8761 154.749 64.1744 154.631 65.5316 154.395C66.8299 154.277 68.2462 154.1 69.6624 153.864C71.1377 153.628 71.9049 153.923 71.9049 154.631ZM121.795 157.169C122.326 157.11 122.739 156.992 123.093 156.874C123.389 156.756 123.684 156.638 123.979 156.402C124.156 156.284 124.392 156.166 124.628 156.048C124.864 155.93 125.041 155.871 125.218 155.812C125.69 155.812 126.162 155.753 126.634 155.694H127.991C128.346 155.753 128.7 155.812 128.995 155.93C129.231 156.107 129.349 156.343 129.349 156.638C129.349 156.874 129.231 157.11 129.113 157.346C128.936 157.641 128.759 157.877 128.582 158.113C128.168 158.585 127.932 158.88 127.932 159.116C126.103 163.365 123.802 167.555 121.028 171.745C121.972 172.63 122.916 173.456 123.861 174.223C124.746 175.049 125.336 175.522 125.69 175.758C125.985 175.994 126.339 176.112 126.693 176.171C127.047 176.289 127.342 176.407 127.696 176.466C128.109 176.584 128.523 176.643 128.936 176.761C129.29 176.879 129.585 177.115 129.939 177.41C130.529 178.118 131.06 178.885 131.65 179.77C132.122 180.715 132.594 181.6 133.066 182.426C133.184 182.662 133.243 182.957 133.362 183.37C133.362 183.842 133.302 184.137 133.066 184.373C132.83 184.609 132.535 184.727 132.299 184.727C131.945 184.727 131.65 184.668 131.414 184.491C131.119 184.373 130.883 184.137 130.647 183.842C130.352 183.606 130.116 183.429 129.939 183.193L119.907 173.397C117.546 176.879 114.95 180.065 112.176 182.898C109.344 185.79 106.393 188.386 103.325 190.629C102.734 190.983 102.38 191.042 102.262 190.806C102.026 190.57 102.144 190.215 102.616 189.743C107.219 185.376 111.409 180.597 115.068 175.403C118.727 170.328 121.618 164.722 123.743 158.644C121.618 158.939 119.553 159.234 117.664 159.529C115.658 159.883 114.065 160.178 112.825 160.474C112.294 160.651 111.881 160.828 111.586 161.005C111.232 161.241 110.878 161.418 110.583 161.595C110.229 161.831 109.875 162.067 109.521 162.185C109.108 162.421 108.636 162.421 108.104 162.244C107.16 162.067 106.275 161.772 105.331 161.418C104.387 161.123 103.738 160.828 103.384 160.533C103.147 160.296 103.029 160.119 103.029 159.942C103.029 159.824 103.088 159.647 103.266 159.529C103.384 159.411 103.62 159.411 104.092 159.411C104.977 159.47 105.921 159.47 106.983 159.352C107.927 159.293 108.872 159.175 109.757 159.057C110.406 158.998 111.232 158.88 112.235 158.762C113.179 158.644 114.183 158.526 115.245 158.29C116.307 158.172 117.369 157.995 118.55 157.759C119.671 157.582 120.733 157.405 121.795 157.169ZM143.748 185.376V188.858C143.689 190.274 143.63 191.632 143.512 192.989C143.394 194.287 143.157 195.467 142.921 196.471C142.567 197.415 142.154 197.887 141.623 197.946C140.915 198.064 140.561 195.763 140.561 191.101V149.851C140.561 148.907 140.148 148.199 139.322 147.727C138.496 147.255 137.256 146.842 135.722 146.429C135.486 146.37 135.25 146.311 135.132 146.193C134.955 146.134 134.896 145.957 134.896 145.721C134.896 145.248 135.368 144.953 136.371 144.835C136.666 144.835 137.374 144.776 138.437 144.717C139.499 144.717 140.561 144.776 141.623 144.835C142.331 144.953 142.98 145.071 143.512 145.248C143.984 145.485 144.279 145.78 144.279 146.193C144.279 146.783 144.161 147.314 144.043 147.727C143.807 148.199 143.748 148.848 143.748 149.615V185.376ZM156.46 175.226C156.46 174.282 156.106 173.574 155.457 173.043C154.749 172.571 153.569 172.217 151.917 171.863C151.326 171.804 151.09 171.568 151.09 171.155C151.09 170.683 151.562 170.387 152.566 170.269C152.861 170.21 153.569 170.151 154.69 170.092C155.752 170.092 156.815 170.092 157.936 170.151H158.054C158.054 170.21 158.054 170.21 158.113 170.21L173.928 167.909V156.402C173.102 156.52 172.217 156.638 171.272 156.756L168.145 157.287C167.083 157.523 166.02 157.7 165.076 157.877C164.014 158.113 163.129 158.29 162.421 158.408C161.535 158.703 160.768 159.116 160.06 159.588C159.706 159.824 159.293 160.06 158.88 160.178C158.408 160.414 157.936 160.474 157.464 160.355C156.401 160.178 155.457 159.883 154.513 159.47C153.569 159.116 152.92 158.821 152.684 158.585C152.566 158.526 152.507 158.408 152.448 158.231C152.33 158.113 152.271 157.995 152.271 157.759C152.271 157.405 152.625 157.228 153.333 157.228C154.218 157.287 155.162 157.287 156.224 157.169C157.169 157.11 158.113 156.992 158.998 156.874C160.532 156.697 162.362 156.461 164.486 156.107C166.61 155.812 168.676 155.458 170.682 155.103C171.331 154.926 171.863 154.749 172.276 154.631C172.63 154.513 172.984 154.395 173.338 154.159L174.046 153.805C174.223 153.746 174.459 153.687 174.754 153.628C175.108 153.628 175.58 153.569 176.052 153.51C176.524 153.51 176.938 153.569 177.351 153.569C177.705 153.687 178 153.746 178.295 153.864C178.531 154.041 178.649 154.218 178.649 154.454C178.649 154.749 178.59 154.926 178.59 155.044C178.531 155.162 178.472 155.339 178.413 155.458C178.236 155.753 178.118 156.107 178 156.461C177.823 156.933 177.705 157.464 177.646 158.054L176.347 167.555L176.879 167.496C177.823 167.378 178.354 167.673 178.354 168.381C178.354 168.853 178.177 169.148 177.882 169.325C177.528 169.561 177.056 169.679 176.583 169.738L160.06 171.981V182.898C160.06 184.196 160.65 184.727 161.89 184.55C164.25 184.314 166.729 183.842 169.207 183.193C171.686 182.603 174.105 181.836 176.583 181.01C178.944 180.183 181.304 179.298 183.606 178.354L190.156 175.522V149.851C190.156 148.907 189.743 148.199 188.917 147.727C188.091 147.255 186.852 146.842 185.317 146.429C185.081 146.37 184.845 146.311 184.727 146.193C184.55 146.134 184.491 145.957 184.491 145.721C184.491 145.248 184.963 144.953 185.966 144.835C186.261 144.835 186.97 144.776 188.032 144.717C189.094 144.717 190.156 144.776 191.218 144.835C191.927 144.953 192.576 145.071 193.107 145.248C193.579 145.485 193.874 145.78 193.874 146.193C193.874 146.783 193.756 147.314 193.638 147.727C193.402 148.199 193.343 148.848 193.343 149.615V185.376V188.858C193.284 190.274 193.225 191.632 193.107 192.989C192.989 194.287 192.753 195.467 192.517 196.471C192.163 197.415 191.75 197.887 191.218 197.946C190.51 198.064 190.156 195.763 190.156 191.101V177.174C188.032 178.295 185.671 179.416 183.075 180.538C180.419 181.718 177.764 182.839 175.167 183.783C172.453 184.786 169.915 185.613 167.496 186.321C165.017 187.088 162.893 187.56 161.122 187.796C159.47 188.032 158.29 187.678 157.582 186.852C156.815 186.085 156.46 184.786 156.46 183.016V175.226Z" fill="#343434"/>
<path d="M10.8614 86.5261C10.7433 85.818 10.6253 85.1689 10.3893 84.4607C10.0942 83.8706 9.38607 83.3985 8.26485 83.1625C7.67473 83.0444 7.26165 82.9264 6.96659 82.6904C6.61252 82.5723 6.43548 82.2183 6.43548 81.6872C6.43548 81.4511 6.55351 81.1561 6.84857 80.802C7.08461 80.5069 7.67473 80.2709 8.73694 80.0938C9.09101 80.0938 9.85817 80.0348 10.9794 79.9758C12.0416 79.9758 13.1038 79.9758 14.166 80.0938C14.284 80.0938 14.4611 80.1529 14.6381 80.1529C14.7561 80.2119 14.8742 80.2119 14.9922 80.2119L32.5777 77.5563C33.1088 77.4383 33.5219 77.3203 33.876 77.1433C34.171 77.0252 34.4661 76.9072 34.7611 76.6712C34.9972 76.5531 35.2922 76.3761 35.6463 76.1991C35.8824 76.081 36.2954 76.022 36.8265 75.904C37.2986 75.845 37.8888 75.786 38.5969 75.727H40.3673C40.8984 75.786 41.3705 75.904 41.7835 76.081C42.1376 76.3171 42.3146 76.6121 42.3146 76.9662C42.3146 77.6744 42.1376 78.3235 41.9016 78.9726C41.6065 79.6808 41.4295 80.3889 41.3705 81.2151L40.2492 91.6601C41.4295 91.8962 42.0786 92.5453 42.0786 93.6075C42.0786 94.4337 41.7245 95.0828 41.0164 95.4369C40.3082 95.85 39.4821 96.086 38.6559 96.2041L17.2346 99.0366C16.8806 99.9808 16.4675 100.63 15.9954 100.984C15.4643 101.338 14.9922 101.574 14.5791 101.633C13.6349 101.751 12.9858 101.456 12.5727 100.689C12.1006 99.9808 11.8056 98.6825 11.6875 96.7942L10.8614 86.5261ZM52.9368 101.869C52.9368 102.695 52.5827 103.344 51.9926 103.876C51.3434 104.466 50.4583 104.761 49.278 104.879C47.9798 104.997 46.5635 105.174 44.9112 105.292C43.1998 105.528 41.4295 105.705 39.5411 105.941C37.9478 106.177 36.3545 106.354 34.8201 106.531C33.1678 106.767 31.5745 106.944 30.0402 107.18V116.917C30.0402 117.861 29.9812 118.924 29.9812 120.222C29.8632 121.461 29.7451 122.7 29.5091 123.94C29.273 125.12 28.919 126.123 28.4469 127.067C27.9158 127.893 27.2076 128.424 26.3815 128.543C26.0274 128.543 25.6733 128.483 25.3783 128.365C25.0242 128.129 24.7881 127.834 24.5521 127.362C24.3161 126.831 24.139 126.123 24.021 125.297C23.844 124.412 23.7849 123.29 23.7849 121.992V108.124C21.5425 108.479 19.5361 108.833 17.7657 109.069C15.9364 109.423 14.5201 109.659 13.5169 109.895C12.4547 110.131 11.6285 110.485 11.0384 110.839C10.2712 111.252 9.62212 111.547 9.09101 111.724C8.5009 111.96 7.79275 111.96 6.84857 111.724C5.66833 111.429 4.66513 111.075 3.83897 110.662C2.95379 110.308 2.30466 110.013 1.83257 109.718C1.0064 109.246 0.593318 108.715 0.534306 108.124C0.416283 107.711 0.534306 107.298 0.888377 106.826C1.18344 106.472 1.77355 106.236 2.65873 106.236C3.24885 106.236 3.89798 106.236 4.66513 106.177C5.37327 106.177 6.08141 106.177 6.84857 106.118C7.55671 106.118 8.26485 106.059 8.97299 105.941C9.62212 105.941 10.2122 105.882 10.7433 105.764C11.2744 105.705 12.2186 105.587 13.6349 105.351C14.9332 105.233 16.5265 104.997 18.3559 104.761C20.1262 104.584 22.0146 104.348 24.08 104.053C26.0864 103.817 28.0338 103.581 29.9222 103.285C31.7515 103.049 33.4629 102.813 34.9972 102.518C36.5315 102.282 37.7117 102.105 38.5379 101.869C39.7181 101.633 40.6623 101.397 41.3114 101.161C41.9016 100.925 42.3737 100.689 42.7867 100.394C43.1408 100.217 43.4359 100.04 43.7899 99.9218C44.026 99.8628 44.3801 99.8038 44.8521 99.6857C45.6193 99.6267 46.5635 99.5677 47.6257 99.5677C48.6289 99.5677 49.5141 99.6267 50.3402 99.7448C52.0516 99.9808 52.9368 100.689 52.9368 101.869ZM34.8792 81.5101L17.5297 83.9296L17.7657 94.6697L34.8201 92.1913L34.8792 81.5101ZM62.463 90.3029C61.9909 90.4209 61.6368 90.5979 61.2828 90.775C60.8697 91.011 60.5156 91.2471 60.1616 91.4241C59.7485 91.6601 59.3354 91.8372 58.9813 91.8962C58.5092 92.0142 58.0371 92.0142 57.506 91.8962C57.152 91.8372 56.6799 91.7192 56.2078 91.4831C55.6767 91.3061 55.1456 91.07 54.6735 90.834C54.0833 90.5979 53.6112 90.3619 53.1982 90.0668C52.7261 89.8308 52.372 89.6537 52.136 89.4177C51.7819 89.1817 51.6639 88.8866 51.6639 88.4145C51.6639 87.4703 52.372 87.0572 53.7883 87.0572C54.7325 87.1162 55.7357 87.0572 56.9159 86.9392C57.9781 86.8802 58.9813 86.7622 59.8075 86.6441C60.4566 86.5851 61.0467 86.5261 61.6368 86.4081C62.1089 86.3491 62.6991 86.2311 63.2892 86.113C63.8793 85.995 64.5284 85.877 65.2366 85.7C65.9447 85.5819 66.7709 85.4639 67.8331 85.2279C68.3052 85.1689 68.6592 85.0508 69.0133 84.8738C69.2494 84.7558 69.5444 84.6377 69.8395 84.4607L70.5476 84.1066C70.7837 83.9886 71.0197 83.9296 71.3738 83.8706L73.1441 83.6936C73.7343 83.6936 74.2654 83.7526 74.7375 83.8116C75.2096 83.9296 75.5636 84.1066 75.9177 84.3427C76.1537 84.5787 76.3308 84.9328 76.3308 85.2869C76.3308 85.936 76.0947 86.5261 75.6817 86.9982C75.2096 87.5883 74.9145 88.1194 74.7375 88.7096C73.0851 92.8404 71.0197 96.8532 68.5412 100.748C69.1313 101.397 69.6624 101.928 70.1345 102.282C70.6066 102.754 70.9607 103.049 71.2558 103.226C71.4918 103.463 71.7869 103.581 72.0229 103.64C72.2 103.758 72.436 103.817 72.7311 103.876C73.2622 104.053 73.7933 104.23 74.3244 104.348C74.7965 104.584 75.2096 104.879 75.5636 105.233C76.0947 106 76.6848 106.885 77.275 107.829C77.8651 108.833 78.2782 109.718 78.6322 110.485C78.8093 110.839 78.9273 111.252 78.9863 111.606C78.9863 112.019 78.9273 112.314 78.9273 112.55C78.7503 113.613 78.1601 114.203 77.216 114.203C76.4488 114.321 75.8587 114.203 75.3866 113.849C74.9145 113.613 74.4424 113.199 73.9703 112.668L66.1217 104.348C64.1153 107.062 61.9909 109.6 59.7485 111.96C57.506 114.321 55.0865 116.445 52.49 118.333C51.3098 119.278 50.4836 119.337 50.1296 118.747C50.0115 118.629 49.9525 118.451 49.9525 118.097C49.8935 117.802 50.1886 117.33 50.7787 116.681C52.549 114.97 54.2604 113.022 56.0307 110.839C57.7421 108.715 59.3944 106.472 60.9877 104.053C62.522 101.692 63.9383 99.2727 65.2366 96.6761C66.4758 94.1977 67.538 91.6601 68.3642 89.0636C66.9479 89.2997 65.8267 89.4767 65.0005 89.6537C64.0563 89.8898 63.2302 90.0668 62.463 90.3029ZM97.2209 111.783C97.2209 112.845 97.1619 114.144 97.1619 115.678C97.1029 117.33 96.9849 118.865 96.8079 120.399C96.5718 121.874 96.2177 123.172 95.7457 124.353C95.2145 125.474 94.5064 126.123 93.6802 126.241C92.8541 126.3 92.264 125.651 91.8509 124.235C91.3788 122.759 91.2017 120.635 91.2017 117.92V77.9694C91.2017 77.2613 90.9657 76.7302 90.5526 76.3171C90.0805 75.963 89.1953 75.668 87.9561 75.3729C86.7169 75.1369 86.1267 74.6648 86.1267 73.9566C86.1267 72.9534 87.0709 72.3043 89.0183 72.0682C89.3724 72.0682 90.0805 72.0092 91.0247 71.9502C91.9099 71.9502 92.9131 72.0092 93.9753 72.1273C94.9785 72.2453 95.8637 72.4813 96.6308 72.7174C97.339 73.0124 97.693 73.4255 97.693 74.0156C97.693 74.4877 97.575 75.0188 97.457 75.5499C97.28 76.14 97.2209 76.8482 97.2209 77.7924V111.783ZM87.484 109.659C87.484 110.721 87.425 112.019 87.425 113.554C87.366 115.206 87.248 116.74 87.0709 118.215C86.8349 119.75 86.4808 121.048 86.0087 122.228C85.4776 123.29 84.7695 123.94 83.9433 124.058C83.1171 124.117 82.527 123.467 82.1139 122.051C81.6418 120.576 81.4648 118.511 81.4648 115.737V98.9776C81.0517 99.2137 80.6977 99.3907 80.4616 99.6267C80.1075 99.8628 79.7535 100.04 79.2814 100.099H78.8093C78.5732 100.099 78.3962 100.099 78.2192 100.04C77.629 99.9218 76.8619 99.6857 76.0357 99.3907C75.1505 99.1546 74.5014 98.9186 74.0293 98.6235C73.6752 98.4465 73.4392 98.2105 73.2622 97.9744C73.0261 97.7974 72.9081 97.5023 72.9081 97.1482C72.9081 96.7352 73.0261 96.3811 73.3212 96.086C73.5572 95.85 73.9703 95.6729 74.6785 95.5549C75.5046 95.4959 76.2128 95.4369 76.7439 95.3779C77.216 95.3779 77.57 95.3189 77.9241 95.2009L81.4648 94.7878V82.8084C81.4648 82.1002 81.2288 81.5691 80.8157 81.2151C80.3436 80.861 79.4584 80.5659 78.2192 80.2119C76.9799 79.9758 76.3898 79.5037 76.3898 78.8546C76.3898 77.8514 77.334 77.2023 79.2814 76.9662C79.6354 76.9072 80.3436 76.8482 81.2878 76.8482C82.1729 76.8482 83.1761 76.9072 84.2384 76.9662C85.2416 77.0842 86.1267 77.3203 86.8939 77.5563C87.602 77.9104 87.9561 78.3235 87.9561 78.9136C87.9561 79.3857 87.8381 79.9168 87.7201 80.4479C87.543 81.038 87.484 81.7462 87.484 82.6904V109.659ZM105.98 102.223C105.98 101.043 106.216 99.8628 106.747 98.6825C107.219 97.5613 107.927 96.4991 108.931 95.5549C109.875 94.6697 111.055 93.9026 112.471 93.2535C113.888 92.6633 115.481 92.1913 117.369 91.9552C119.199 91.7192 120.851 91.7782 122.267 92.0142C123.684 92.3683 124.864 92.8404 125.808 93.4895C126.752 94.1977 127.46 95.0828 127.991 96.086C128.464 97.1482 128.7 98.2695 128.7 99.4497C128.7 100.63 128.464 101.81 127.991 102.931C127.46 104.112 126.752 105.115 125.808 106C124.805 106.944 123.625 107.711 122.208 108.301C120.792 109.01 119.14 109.423 117.369 109.659C115.481 109.895 113.888 109.895 112.471 109.541C111.055 109.305 109.875 108.774 108.931 108.065C107.927 107.357 107.219 106.531 106.747 105.469C106.216 104.525 105.98 103.403 105.98 102.223ZM142.803 91.6011C143.157 91.6011 143.571 91.4831 143.925 91.2471C144.22 91.07 144.515 90.834 144.869 90.5979C145.105 90.3619 145.4 90.1849 145.754 89.9488C146.049 89.7718 146.403 89.6537 146.875 89.5357C147.524 89.4767 148.114 89.4177 148.646 89.4177C149.118 89.4177 149.708 89.4767 150.416 89.5947C151.183 89.7128 151.773 90.0078 152.186 90.4209C152.54 90.893 152.776 91.3651 152.776 91.8962C152.776 92.6043 152.481 93.1945 152.009 93.6665C151.419 94.1977 150.652 94.5517 149.59 94.6697L141.859 95.6139V101.692C141.859 102.636 141.8 103.758 141.8 105.056C141.741 106.413 141.623 107.711 141.387 108.951C141.151 110.249 140.797 111.37 140.325 112.314C139.853 113.258 139.145 113.79 138.318 113.908C137.492 114.026 136.902 113.495 136.489 112.373C136.017 111.311 135.84 109.423 135.84 106.708V78.5595C135.84 77.8514 135.486 77.3203 134.896 76.9662C134.188 76.6712 133.243 76.3761 132.004 76.022C131.414 75.904 131.001 75.727 130.706 75.6089C130.352 75.5499 130.175 75.2549 130.175 74.6648C130.175 73.6616 131.119 73.0124 133.066 72.7764C133.421 72.7174 134.188 72.6584 135.368 72.5993C136.43 72.5993 137.551 72.6584 138.614 72.7174C139.617 72.8354 140.502 73.0714 141.269 73.3075C141.977 73.6025 142.39 74.0746 142.39 74.7238C142.39 75.1959 142.272 75.727 142.154 76.1991C141.918 76.7892 141.859 77.4973 141.859 78.4415V91.7192L142.803 91.6011ZM134.955 121.52C135.309 121.461 135.604 121.343 135.958 121.166C136.194 120.93 136.489 120.753 136.843 120.517C137.138 120.281 137.492 120.045 137.846 119.868C138.2 119.632 138.555 119.514 139.027 119.514C139.676 119.396 140.384 119.337 141.092 119.337C141.8 119.337 142.449 119.337 143.157 119.455C143.925 119.573 144.515 119.809 144.928 120.281C145.282 120.694 145.518 121.166 145.518 121.756C145.518 122.464 145.223 123.054 144.751 123.527C144.161 123.999 143.394 124.294 142.331 124.471L120.32 127.362C118.432 127.598 117.074 127.421 116.307 126.772C115.481 126.064 115.127 124.825 115.127 123.054V118.511C115.127 117.861 114.832 117.33 114.242 116.976C113.593 116.622 112.648 116.327 111.409 115.973C110.819 115.855 110.406 115.678 110.111 115.501C109.757 115.383 109.58 115.029 109.58 114.498C109.58 113.554 110.524 112.963 112.471 112.727C112.825 112.668 113.593 112.609 114.773 112.55C115.835 112.55 116.956 112.609 118.018 112.668C119.022 112.786 119.848 113.081 120.438 113.435C120.969 113.849 121.264 114.439 121.264 115.206V122.11C121.264 122.641 121.323 122.995 121.5 123.172C121.618 123.29 121.972 123.349 122.562 123.29L134.955 121.52ZM123.743 85.1689C124.215 85.0508 124.687 84.9328 125.041 84.6968C125.336 84.5787 125.631 84.4017 125.985 84.1657C126.221 84.0476 126.516 83.8706 126.87 83.6936C127.106 83.5755 127.46 83.4575 127.873 83.3985C128.523 83.3395 129.113 83.2805 129.703 83.2215C130.175 83.2215 130.765 83.2805 131.473 83.3395C132.358 83.4575 133.007 83.6936 133.362 84.0476C133.657 84.5197 133.834 84.9918 133.834 85.5229C133.834 87.1162 132.771 88.0014 130.647 88.1194C128.877 88.3555 127.047 88.5325 125.159 88.7686C123.27 89.0046 121.441 89.2997 119.671 89.5357C117.9 89.8308 116.248 90.0668 114.714 90.3029C113.12 90.5979 111.763 90.834 110.701 91.07C110.406 91.1881 110.052 91.3061 109.698 91.4831C109.226 91.7192 108.872 91.9552 108.577 92.1322C108.045 92.4863 107.514 92.7224 107.042 92.8994C106.452 93.1354 105.744 93.1945 104.918 92.9584C104.682 92.9584 104.387 92.8404 103.974 92.6633C103.502 92.5453 102.97 92.3683 102.498 92.1322C101.967 91.9552 101.495 91.7192 101.082 91.4831C100.61 91.3061 100.315 91.129 100.138 90.893C99.6658 90.5389 99.4297 90.1258 99.4297 89.6537C99.4297 89.3587 99.5478 89.0046 99.8428 88.6505C100.079 88.2965 100.61 88.1785 101.377 88.1785C102.321 88.2375 103.384 88.1785 104.564 88.0604C105.744 88.0014 106.747 87.9424 107.573 87.8244C108.872 87.7064 110.052 87.5293 111.173 87.3523C112.235 87.2343 113.357 87.1162 114.596 86.8802C115.776 86.7622 117.074 86.5261 118.55 86.2311C119.966 85.995 121.736 85.6409 123.743 85.1689ZM112.058 101.338C112.058 102.577 112.471 103.581 113.416 104.348C114.242 105.174 115.599 105.528 117.369 105.292C119.14 105.056 120.438 104.466 121.323 103.403C122.149 102.4 122.562 101.279 122.562 100.04C122.562 98.8006 122.149 97.7974 121.323 96.9712C120.438 96.2041 119.14 95.909 117.369 96.145C115.599 96.3811 114.242 96.9712 113.416 97.9154C112.471 98.9776 112.058 100.099 112.058 101.338ZM124.215 80.4479C124.215 81.1561 123.979 81.6281 123.507 81.9822C123.034 82.3953 122.444 82.6904 121.795 82.8084C121.205 82.9854 120.497 83.1625 119.73 83.3395C118.904 83.5755 118.136 83.7526 117.31 83.8706C116.425 84.0476 115.599 84.1657 114.832 84.2247C114.006 84.3427 113.238 84.4017 112.648 84.4017C111.704 84.4017 110.819 84.1657 109.934 83.5755C108.99 83.0444 108.4 82.4543 108.104 81.8642C107.986 81.7462 107.927 81.5691 107.927 81.3921C107.868 81.2741 107.809 81.1561 107.809 81.038C107.691 80.743 107.809 80.3889 108.104 80.0348C108.341 79.7398 108.872 79.6217 109.639 79.7398C109.993 79.7988 110.465 79.8578 110.996 79.8578C111.468 79.9758 112.176 79.9758 113.12 79.9168C113.711 79.9168 114.419 79.9168 115.245 79.7988C116.012 79.7398 116.838 79.6217 117.664 79.5037C118.432 79.3857 119.199 79.2677 119.907 79.1496C120.556 79.0906 121.087 79.0316 121.559 78.9726C122.267 78.8546 122.916 78.9136 123.448 79.0316C123.92 79.2677 124.215 79.7398 124.215 80.4479Z" fill="#A451F7"/>
</svg>
