<svg width="66" height="29" viewBox="0 0 66 29" fill="none" xmlns="http://www.w3.org/2000/svg">
<rect x="0.517141" y="0.577341" width="64" height="27" rx="13.5" transform="rotate(0.0220808 0.517141 0.577341)" stroke="#FFEB60"/>
<path d="M21.752 17.6096L21.7527 15.9656L25.1007 15.9669L25.1011 14.6949L18.6931 14.6924L18.6936 13.4564L24.8496 13.4588L24.851 9.77481L17.111 9.77183L17.1106 11.0318L23.2906 11.0342L23.2901 12.2222L17.1221 12.2198L17.1207 15.9638L20.1687 15.965L20.168 17.609L15.968 17.6074L15.9675 18.9034L25.9755 18.9072L25.976 17.6112L21.752 17.6096ZM34.1975 11.3984C34.1969 12.8984 34.1963 14.4704 33.7995 16.5823L35.3714 16.7269C35.7803 14.459 35.7809 12.947 35.7815 11.399L35.782 10.091L28.042 10.088L28.0415 11.348L34.1975 11.3504L34.1975 11.3984ZM27.0072 17.3836L27.0067 18.6796L37.0027 18.6835L37.0032 17.3875L27.0072 17.3836ZM47.2294 9.08743L45.6334 9.08682L45.6304 17.0188L47.2264 17.0194L47.2294 9.08743ZM39.7521 12.5886C39.7524 11.6766 40.4006 11.1488 41.2166 11.1491C42.0446 11.1494 42.6684 11.6777 42.6681 12.5897C42.6677 13.4777 42.0435 14.0174 41.2155 14.0171C40.3995 14.0168 39.7517 13.4766 39.7521 12.5886ZM44.2161 12.5903C44.2167 10.9583 42.9092 9.78177 41.2172 9.78112C39.5252 9.78047 38.2047 10.956 38.2041 12.588C38.2035 14.196 39.523 15.3845 41.215 15.3851C42.907 15.3858 44.2155 14.1983 44.2161 12.5903ZM41.4537 18.6732L41.4547 16.2372L39.8707 16.2366L39.8693 19.9326L47.5013 19.9355L47.5017 18.6755L41.4537 18.6732Z" fill="#FFEB60"/>
</svg>
