<svg width="65" height="28" viewBox="0 0 65 28" fill="none" xmlns="http://www.w3.org/2000/svg">
<rect x="0.5" y="0.5" width="64" height="27" rx="13.5" stroke="#A451F7"/>
<path d="M21.7414 17.524V15.88H25.0894V14.608H18.6814V13.372H24.8374V9.688H17.0974V10.948H23.2774V12.136H17.1094V15.88H20.1574V17.524H15.9574V18.82H25.9654V17.524H21.7414ZM34.1845 11.308C34.1845 12.808 34.1845 14.38 33.7885 16.492L35.3605 16.636C35.7685 14.368 35.7685 12.856 35.7685 11.308V10H28.0285V11.26H34.1845V11.308ZM26.9965 17.296V18.592H36.9925V17.296H26.9965ZM47.2155 8.992H45.6195V16.924H47.2155V8.992ZM39.7395 12.496C39.7395 11.584 40.3875 11.056 41.2035 11.056C42.0315 11.056 42.6555 11.584 42.6555 12.496C42.6555 13.384 42.0315 13.924 41.2035 13.924C40.3875 13.924 39.7395 13.384 39.7395 12.496ZM44.2035 12.496C44.2035 10.864 42.8955 9.688 41.2035 9.688C39.5115 9.688 38.1915 10.864 38.1915 12.496C38.1915 14.104 39.5115 15.292 41.2035 15.292C42.8955 15.292 44.2035 14.104 44.2035 12.496ZM41.4435 18.58V16.144H39.8595V19.84H47.4915V18.58H41.4435Z" fill="#A451F7"/>
</svg>
