<svg width="191" height="68" viewBox="0 0 191 68" fill="none" xmlns="http://www.w3.org/2000/svg">
<g filter="url(#filter0_d)">
<rect x="14" y="10" width="163" height="40" rx="20" fill="#BF85F9"/>
<path d="M79.7585 27.808V26.32H71.9665V24.736H79.6465V23.248H70.0945V27.808H79.7585ZM81.2625 30.192V28.688H68.3825V30.192H81.2625ZM80.0785 37.2V35.664H71.8865V34.832H79.5665V31.152H69.9345V32.624H77.6945V33.488H70.0305V37.2H80.0785ZM82.2622 29.088C82.2622 32.08 83.6222 34.16 85.9422 34.16C88.0702 34.16 89.3822 32.4 89.5902 29.824H92.0862V37.264H93.9582V23.008H92.0862V28.24H89.5742C89.3502 25.696 88.0542 23.984 85.9422 23.984C83.6222 23.984 82.2622 26.08 82.2622 29.088ZM87.8302 29.088C87.8302 31.328 87.0462 32.656 85.9422 32.656C84.8702 32.656 84.0862 31.328 84.0862 29.088C84.0862 26.832 84.8702 25.488 85.9422 25.488C87.0462 25.488 87.8302 26.832 87.8302 29.088ZM108.83 35.488V34H103.294V31.232H107.294V23.952H105.422V26.192H99.358V23.984H97.502V31.232H101.422V34H95.95V35.488H108.83ZM105.422 29.744H99.358V27.632H105.422V29.744ZM121.526 37.264V23.008H119.654V37.264H121.526ZM117.142 24.496H110.486V26.048H115.126C114.87 28.88 112.742 31.856 109.622 33.28L110.774 34.688C115.126 32.32 117.03 28.8 117.142 24.496Z" fill="#333333"/>
<path d="M79.7585 27.808V26.32H71.9665V24.736H79.6465V23.248H70.0945V27.808H79.7585ZM81.2625 30.192V28.688H68.3825V30.192H81.2625ZM80.0785 37.2V35.664H71.8865V34.832H79.5665V31.152H69.9345V32.624H77.6945V33.488H70.0305V37.2H80.0785ZM82.2622 29.088C82.2622 32.08 83.6222 34.16 85.9422 34.16C88.0702 34.16 89.3822 32.4 89.5902 29.824H92.0862V37.264H93.9582V23.008H92.0862V28.24H89.5742C89.3502 25.696 88.0542 23.984 85.9422 23.984C83.6222 23.984 82.2622 26.08 82.2622 29.088ZM87.8302 29.088C87.8302 31.328 87.0462 32.656 85.9422 32.656C84.8702 32.656 84.0862 31.328 84.0862 29.088C84.0862 26.832 84.8702 25.488 85.9422 25.488C87.0462 25.488 87.8302 26.832 87.8302 29.088ZM108.83 35.488V34H103.294V31.232H107.294V23.952H105.422V26.192H99.358V23.984H97.502V31.232H101.422V34H95.95V35.488H108.83ZM105.422 29.744H99.358V27.632H105.422V29.744ZM121.526 37.264V23.008H119.654V37.264H121.526ZM117.142 24.496H110.486V26.048H115.126C114.87 28.88 112.742 31.856 109.622 33.28L110.774 34.688C115.126 32.32 117.03 28.8 117.142 24.496Z" fill="white"/>
</g>
<defs>
<filter id="filter0_d" x="0" y="0" width="191" height="68" filterUnits="userSpaceOnUse" color-interpolation-filters="sRGB">
<feFlood flood-opacity="0" result="BackgroundImageFix"/>
<feColorMatrix in="SourceAlpha" type="matrix" values="0 0 0 0 0 0 0 0 0 0 0 0 0 0 0 0 0 0 127 0"/>
<feOffset dy="4"/>
<feGaussianBlur stdDeviation="7"/>
<feColorMatrix type="matrix" values="0 0 0 0 0 0 0 0 0 0 0 0 0 0 0 0 0 0 0.25 0"/>
<feBlend mode="normal" in2="BackgroundImageFix" result="effect1_dropShadow"/>
<feBlend mode="normal" in="SourceGraphic" in2="effect1_dropShadow" result="shape"/>
</filter>
</defs>
</svg>
