<svg width="63" height="24" viewBox="0 0 63 24" fill="none" xmlns="http://www.w3.org/2000/svg">
<path d="M24.4385 8.944C23.0606 9.1889 24.0857 17.6751 20.2166 18.0052C20.2166 18.0052 20.2166 18.0052 20.2056 18.0052C20.1835 18.0052 20.1725 18.0052 20.1505 18.0052C20.1064 18.0052 20.0513 18.0159 19.9962 18.0159H19.9851H19.9741C15.7743 18.0159 16.9428 8.97594 15.4657 8.93335C13.9886 8.98659 15.157 18.0159 10.9572 18.0159H10.9462H10.9352H10.9242C6.71333 18.0159 7.90382 8.93335 6.40469 8.93335C4.90555 8.93335 6.09604 18.0159 1.88522 18.0159C1.79704 18.0159 1.7309 18.0159 1.67578 18.0052C3.82528 21.5935 7.83769 23.9999 12.4343 23.9999C19.2907 23.9999 24.8573 18.6228 24.8573 11.9999C24.8463 10.9458 24.703 9.91294 24.4385 8.944Z" fill="#A451F7"/>
<path d="M2.32587 15.2582C2.33689 15.2263 2.35894 15.1943 2.36996 15.1624C3.1526 13.1925 2.77782 6.15439 6.40441 6.15439C6.41544 6.15439 6.41544 6.15439 6.42646 6.15439H6.43748C6.43748 6.15439 6.43748 6.15439 6.44851 6.15439H6.45953C6.48158 6.15439 6.50362 6.15439 6.52567 6.15439C6.56976 6.15439 6.61385 6.15439 6.64692 6.16504C6.69101 6.16504 6.72408 6.17569 6.75715 6.17569C6.80125 6.17569 6.84534 6.18634 6.87841 6.19698C6.88943 6.19698 6.90045 6.19698 6.90045 6.19698C10.5381 6.88909 9.51292 15.5563 10.9349 15.6096C12.412 15.5563 11.2436 6.15439 15.4433 6.15439H15.4544H15.4654C19.1802 6.15439 18.6952 13.5759 19.566 15.3114C19.6762 15.5031 19.8085 15.6096 19.9628 15.6096C21.3187 15.6096 20.4809 7.91127 23.402 6.40994C21.3297 2.59805 17.185 0 12.423 0C5.56666 0 0 5.37711 0 12C0 13.2671 0.209439 14.4809 0.584224 15.6202L0.727524 16.0994C0.727524 16.0994 1.22356 16.2591 1.94006 15.7906C2.05029 15.6948 2.19359 15.5457 2.32587 15.2582Z" fill="#A451F7"/>
<path d="M29.3866 3.77954C29.041 3.77954 28.7511 3.89667 28.5169 4.12027C28.2828 4.34387 28.1602 4.62071 28.1602 4.9295C28.1602 5.25958 28.2828 5.53642 28.5169 5.76002C28.7511 5.98362 29.041 6.10075 29.3866 6.10075C29.7211 6.10075 29.9999 5.98362 30.234 5.76002C30.4681 5.53642 30.5908 5.25958 30.5908 4.9295C30.5908 4.61006 30.4681 4.34387 30.234 4.12027C30.011 3.89667 29.7211 3.77954 29.3866 3.77954Z" fill="#A451F7"/>
<path d="M29.3773 7.86865C29.0762 7.86865 28.8086 7.97513 28.5968 8.17744C28.3849 8.37974 28.2734 8.63529 28.2734 8.94407V20.1029C28.2734 20.401 28.3849 20.6672 28.5968 20.8695C28.8086 21.0718 29.0762 21.1783 29.3773 21.1783C29.6894 21.1783 29.9682 21.0718 30.18 20.8695C30.3919 20.6672 30.5034 20.4117 30.5034 20.1029V8.94407C30.5034 8.64594 30.3919 8.39039 30.18 8.17744C29.957 7.97513 29.6894 7.86865 29.3773 7.86865Z" fill="#A451F7"/>
<path d="M46.6562 3.77954C46.3105 3.77954 46.0206 3.89667 45.7865 4.12027C45.5523 4.34387 45.4297 4.62071 45.4297 4.9295C45.4297 5.25958 45.5523 5.53642 45.7865 5.76002C46.0206 5.98362 46.3105 6.10075 46.6562 6.10075C46.9906 6.10075 47.2694 5.98362 47.5035 5.76002C47.7377 5.53642 47.8603 5.25958 47.8603 4.9295C47.8603 4.61006 47.7377 4.34387 47.5035 4.12027C47.2694 3.89667 46.9906 3.77954 46.6562 3.77954Z" fill="#A451F7"/>
<path d="M46.6351 7.86865C46.334 7.86865 46.0664 7.97513 45.8546 8.17744C45.6427 8.37974 45.5312 8.63529 45.5312 8.94407V20.1029C45.5312 20.401 45.6427 20.6672 45.8546 20.8695C46.0664 21.0718 46.334 21.1783 46.6351 21.1783C46.9473 21.1783 47.226 21.0718 47.4378 20.8695C47.6497 20.6672 47.7612 20.4117 47.7612 20.1029V8.94407C47.7612 8.64594 47.6497 8.39039 47.4378 8.17744C47.226 7.97513 46.9584 7.86865 46.6351 7.86865Z" fill="#A451F7"/>
<path d="M35.1624 2.36353C34.8614 2.36353 34.5938 2.47 34.3819 2.67231C34.1701 2.87462 34.0586 3.13016 34.0586 3.43895V20.1027C34.0586 20.4008 34.1701 20.667 34.3819 20.8693C34.5938 21.0716 34.8614 21.1781 35.1624 21.1781C35.4746 21.1781 35.7533 21.0716 35.9652 20.8693C36.177 20.667 36.2885 20.4114 36.2885 20.1027V3.43895C36.2885 3.14081 36.177 2.88526 35.9652 2.67231C35.7533 2.47 35.4857 2.36353 35.1624 2.36353Z" fill="#A451F7"/>
<path d="M40.971 2.36353C40.67 2.36353 40.4024 2.47 40.1905 2.67231C39.9787 2.87462 39.8672 3.13016 39.8672 3.43895V20.1027C39.8672 20.4008 39.9787 20.667 40.1905 20.8693C40.4024 21.0716 40.67 21.1781 40.971 21.1781C41.2832 21.1781 41.5619 21.0716 41.7738 20.8693C41.9856 20.667 42.0971 20.4114 42.0971 20.1027V3.43895C42.0971 3.14081 41.9856 2.88526 41.7738 2.67231C41.5619 2.47 41.2832 2.36353 40.971 2.36353Z" fill="#A451F7"/>
<path d="M53.3715 15.7049H61.756C62.0682 15.7049 62.3358 15.6091 62.5365 15.4174C62.726 15.2364 62.8264 15.0235 62.8487 14.7679C62.7818 11.4884 60.1951 8.84777 56.9728 8.80518C56.9394 8.80518 56.9171 8.80518 56.8948 8.80518C56.1589 8.80518 55.4453 8.9436 54.7875 9.19914C54.4864 9.30562 54.2077 9.43339 53.9289 9.58246C52.9924 10.1042 52.2453 10.8282 51.7213 11.7546C51.2865 12.5212 51.03 13.3731 50.9631 14.2994C50.952 14.3739 50.952 14.4591 50.9408 14.5337C50.9408 14.6401 50.9297 14.7573 50.9297 14.8637C50.9297 14.8744 50.9297 14.8744 50.9297 14.885C50.9297 14.885 50.9297 14.885 50.9297 14.8957C50.9297 16.0563 51.2084 17.1104 51.7659 18.0261C51.922 18.2817 52.1004 18.5266 52.2899 18.7502C53.3826 20.1024 55.0328 20.9649 56.8948 20.9649C56.984 20.9649 57.062 20.9649 57.1512 20.9542C57.2627 20.9542 57.3631 20.9649 57.4745 20.9649C58.177 20.9649 58.924 20.8371 59.6822 20.5922C60.4515 20.3473 61.0982 20.0172 61.6111 19.6339C61.756 19.5274 61.8675 19.4103 61.9233 19.2719C62.0013 19.1335 62.0348 18.9844 62.0348 18.814C62.0348 18.2497 61.5553 17.7919 60.9644 17.7919C60.6634 17.7919 60.3958 17.909 60.2062 18.09C60.1616 18.1113 60.117 18.1432 60.0724 18.1752C59.7602 18.4094 59.3477 18.6011 58.8683 18.7608C58.3777 18.9205 57.9094 18.9951 57.4634 18.9951C56.3261 18.9951 55.3561 18.6863 54.5645 18.0687C53.862 17.5257 53.4049 16.8123 53.1931 15.9498L53.1708 15.8753C53.1485 15.7262 53.3715 15.7049 53.3715 15.7049ZM56.8948 10.775C58.7233 10.775 60.2397 11.9463 60.5184 13.3944C60.5184 13.405 60.5073 13.767 60.1059 13.8522C60.0947 13.8522 60.0836 13.8522 60.0724 13.8629C59.9721 13.8629 59.8717 13.8629 59.7937 13.8629C59.1693 13.8629 58.478 13.8629 56.9505 13.8629C55.8913 13.8629 55.2223 13.8309 53.6725 13.8522C53.3269 13.7777 53.2711 13.4902 53.2711 13.4156C53.5276 11.9569 55.0551 10.775 56.8948 10.775Z" fill="#A451F7"/>
</svg>
