<svg width="125" height="22" viewBox="0 0 125 22" fill="none" xmlns="http://www.w3.org/2000/svg">
<g clip-path="url(#clip0)">
<path d="M21.8014 8.19873C20.5722 8.42321 21.4867 16.2023 18.0353 16.5048C18.0353 16.5048 18.0353 16.5048 18.0255 16.5048C18.0058 16.5048 17.996 16.5048 17.9763 16.5048C17.937 16.5048 17.8878 16.5146 17.8386 16.5146H17.8288H17.819C14.0726 16.5146 15.1149 8.22801 13.7973 8.18896C12.4796 8.23777 13.5219 16.5146 9.77553 16.5146H9.7657H9.75587H9.74603C5.9898 16.5146 7.05177 8.18896 5.71448 8.18896C4.37718 8.18896 5.43915 16.5146 1.68292 16.5146C1.60426 16.5146 1.54526 16.5146 1.49609 16.5048C3.41354 19.7941 6.99278 22 11.0932 22C17.2093 22 22.175 17.0709 22.175 11C22.1652 10.0337 22.0374 9.08692 21.8014 8.19873Z" fill="white"/>
<path d="M2.07478 13.9867C2.08461 13.9574 2.10428 13.9281 2.11411 13.8988C2.81226 12.0932 2.47793 5.64152 5.71301 5.64152C5.72284 5.64152 5.72284 5.64152 5.73268 5.64152H5.74251C5.74251 5.64152 5.74251 5.64152 5.75234 5.64152H5.76218C5.78184 5.64152 5.80151 5.64152 5.82117 5.64152C5.86051 5.64152 5.89984 5.64152 5.92934 5.65128C5.96867 5.65128 5.99817 5.66104 6.02767 5.66104C6.067 5.66104 6.10633 5.6708 6.13583 5.68056C6.14567 5.68056 6.1555 5.68056 6.1555 5.68056C9.40041 6.31499 8.48594 14.26 9.7544 14.3088C11.072 14.26 10.0297 5.64152 13.7761 5.64152H13.786H13.7958C17.1095 5.64152 16.6769 12.4445 17.4537 14.0355C17.552 14.2112 17.67 14.3088 17.8077 14.3088C19.0171 14.3088 18.2698 7.25199 20.8756 5.87577C19.027 2.38154 15.3297 0 11.0819 0C4.9657 0 0 4.92901 0 11C0 12.1615 0.186828 13.2742 0.521152 14.3185L0.648982 14.7577C0.648982 14.7577 1.09147 14.9042 1.73062 14.4747C1.82895 14.3868 1.95678 14.2502 2.07478 13.9867Z" fill="white"/>
</g>
<path d="M39.5823 10.7545H29.5664V1.89407H39.5823V10.7545ZM37.7184 9.23038V3.41823H31.4303V9.23038H37.7184ZM45.8909 1.62988V11.4658H44.027V1.62988H45.8909ZM44.027 14.0061H30.3857V12.4819H45.8909V17.0951H32.2701V18.7411H46.3006V20.2653H30.3857V15.5709H44.027V14.0061Z" fill="white"/>
<path d="M64.2485 1.62988V20.2653H62.3846V1.62988H64.2485ZM47.924 9.9823H56.035V3.4792H47.883V1.89407H57.9399V11.5674H49.8084V18.355H58.964V19.8995H47.924V9.9823Z" fill="white"/>
<path d="M82.6061 1.62988V20.2653H80.7422V1.62988H82.6061ZM79.9639 19.2289C78.8988 19.3305 77.7518 19.4321 76.5638 19.5134L72.9179 19.6963C71.6685 19.7369 70.4395 19.7979 69.231 19.8385C68.0021 19.8589 66.8346 19.8792 65.7285 19.8995L65.4828 18.355C66.5888 18.3347 67.7563 18.3144 68.9853 18.2941C70.1937 18.2534 71.4227 18.2331 72.6721 18.1925L76.318 18.0096C77.506 17.9283 78.653 17.8267 79.7181 17.725L79.9639 19.2289ZM77.7313 9.18973C77.7313 10.9578 77.2397 12.2584 76.2975 13.0713C75.3348 13.9045 74.0035 14.3109 72.3239 14.3109C70.6239 14.3109 69.2925 13.9045 68.3503 13.0713C67.3671 12.2584 66.896 10.9781 66.896 9.21005V6.79171C66.896 5.04401 67.3671 3.74339 68.3503 2.91018C69.2925 2.09729 70.6239 1.69085 72.3239 1.69085C74.0035 1.69085 75.3348 2.11761 76.2975 2.9305C77.2397 3.76371 77.7313 5.06433 77.7313 6.81204V9.18973ZM68.7804 9.21005C68.7804 9.90101 68.8624 10.4497 69.0467 10.8765C69.2106 11.3236 69.4768 11.6894 69.8046 11.9332C70.1118 12.2177 70.4805 12.4006 70.9311 12.5022C71.3407 12.6242 71.8118 12.6648 72.3239 12.6648C72.8155 12.6648 73.2866 12.6242 73.7372 12.5022C74.1468 12.4006 74.5155 12.2177 74.8432 11.9332C75.1505 11.6894 75.3963 11.3236 75.5806 10.8765C75.7445 10.4497 75.8469 9.90101 75.8469 9.21005V6.79171C75.8469 6.1414 75.7445 5.57238 75.5806 5.1253C75.3963 4.67821 75.1505 4.33273 74.8432 4.04822C74.5155 3.80435 74.1468 3.62146 73.7372 3.49952C73.2866 3.39791 72.8155 3.33694 72.3239 3.33694C71.8118 3.33694 71.3407 3.39791 70.9311 3.49952C70.4805 3.62146 70.1118 3.80435 69.8046 4.04822C69.4768 4.33273 69.2106 4.67821 69.0467 5.1253C68.8624 5.57238 68.7804 6.1414 68.7804 6.79171V9.21005Z" fill="white"/>
<path d="M98.8866 19.9198C98.3951 19.5947 97.924 19.2492 97.4529 18.8631C96.9613 18.4566 96.5312 18.0096 96.1215 17.5625C95.6914 17.0951 95.3022 16.587 94.9745 16.0586C94.6263 15.5506 94.36 15.0222 94.1552 14.4532C93.9504 15.0222 93.6636 15.5912 93.3154 16.1196C92.9467 16.6683 92.5576 17.1763 92.1274 17.6641C91.6768 18.1518 91.2057 18.5989 90.7141 19.0257C90.2021 19.4321 89.7105 19.7979 89.2394 20.1231L88.1129 18.8631C88.8502 18.3957 89.5466 17.8673 90.1816 17.278C90.7961 16.6683 91.3491 16.018 91.7997 15.2864C92.2503 14.5954 92.5985 13.8435 92.8443 13.0306C93.0901 12.2584 93.213 11.4252 93.213 10.5716V1.79246H95.1179V10.5716C95.1179 12.3193 95.548 13.8842 96.4492 15.2254C97.3095 16.587 98.4975 17.725 100.013 18.6599L98.8866 19.9198ZM105.38 20.2653H103.516V10.7545H98.6613V9.16941H103.516V1.62988H105.38V20.2653Z" fill="white"/>
<path d="M124.167 1.62988V20.2653H122.344V10.7545H119.682V20.0011H117.879V1.79246H119.682V9.18973H122.344V1.62988H124.167ZM112.451 10.9781C112.451 11.7503 112.513 12.5022 112.656 13.2135C112.779 13.9451 113.004 14.6158 113.332 15.2457C113.619 15.896 114.028 16.5057 114.52 17.0544C115.012 17.6031 115.606 18.1112 116.323 18.5786L115.36 19.8792C115.032 19.6963 114.704 19.4524 114.336 19.1476C113.967 18.8224 113.598 18.4363 113.25 18.0299C112.881 17.6031 112.574 17.156 112.287 16.648C111.98 16.1602 111.734 15.6319 111.571 15.0628C111.407 15.6319 111.181 16.1602 110.895 16.6683C110.608 17.1763 110.28 17.6641 109.932 18.1112C109.563 18.5379 109.195 18.924 108.805 19.2898C108.396 19.615 107.986 19.8995 107.617 20.1231L106.573 18.8834C108.007 17.9892 109.051 16.8715 109.686 15.5099C110.301 14.1687 110.628 12.6648 110.628 11.0187V3.4792H107.085V1.89407H115.995V3.4792H112.451V10.9781Z" fill="white"/>
<defs>
<clipPath id="clip0">
<rect width="22.1735" height="22" fill="white"/>
</clipPath>
</defs>
</svg>
