<svg width="23" height="22" viewBox="0 0 23 22" fill="none" xmlns="http://www.w3.org/2000/svg">
<path fill-rule="evenodd" clip-rule="evenodd" d="M2.09444 13.9427C2.08707 13.9574 2.07969 13.972 2.07478 13.9867C1.95678 14.2502 1.82895 14.3868 1.73062 14.4747C1.09147 14.9042 0.648982 14.7577 0.648982 14.7577L0.521152 14.3185C0.186828 13.2742 0 12.1615 0 11C0 4.92901 4.9657 0 11.0819 0C15.3298 0 19.027 2.38154 20.8756 5.87577C20.4189 6.11699 20.0652 6.53272 19.7859 7.05439C19.1318 8.27602 18.8859 10.0786 18.6809 11.5812C18.4739 13.0977 18.3087 14.3088 17.8077 14.3088C17.67 14.3088 17.552 14.2112 17.4537 14.0355C17.353 13.8292 17.2726 13.5353 17.2017 13.18C17.1134 12.7372 17.0399 12.1989 16.9603 11.6159C16.776 10.2662 16.5589 8.67665 16.0496 7.47661C15.6573 6.55228 15.0915 5.85901 14.2338 5.68435C13.8972 5.6158 13.5013 5.62275 13.1428 5.73369C12.2635 6.00576 11.7152 6.85328 11.3478 7.91606C10.9593 9.04038 10.7733 10.4056 10.6126 11.5853C10.4079 13.0886 10.2441 14.2906 9.7544 14.3088C9.58408 14.3022 9.45311 14.1533 9.34615 13.8988C9.14461 13.4194 9.02829 12.5651 8.89448 11.5825C8.83362 11.1356 8.76915 10.6621 8.69139 10.1852C8.45269 8.72121 8.08885 7.22515 7.32033 6.36717C6.74291 5.72252 5.9136 5.47558 5.08084 5.73369C4.64585 5.86852 4.29177 6.14469 4.00047 6.51852C3.07914 7.70088 2.7859 9.8602 2.54766 11.6145C2.41776 12.571 2.30421 13.4072 2.11411 13.8988C2.10919 13.9135 2.10182 13.9281 2.09444 13.9427ZM20.9828 10.8133C21.182 9.41205 21.3425 8.28239 21.7999 8.19885C22.0359 9.08705 22.1637 10.0338 22.1736 11.0001C22.1736 17.0711 17.2079 22.0001 11.0917 22.0001C6.9913 22.0001 3.41207 19.7942 1.49462 16.505C1.54378 16.5147 1.60278 16.5147 1.68145 16.5147C4.03398 16.5147 4.49656 13.249 4.84228 10.8081C4.99273 9.74601 5.12105 8.84009 5.37335 8.42745C5.55695 8.12716 5.86906 8.12716 6.05266 8.42745C6.30496 8.84009 6.43328 9.74601 6.58372 10.8081C6.825 12.5116 7.12319 14.6167 8.08097 15.7333C8.49559 16.2166 9.03383 16.5147 9.74456 16.5147H9.75439H9.76423H9.77406C10.5192 16.5147 11.0749 16.1873 11.4974 15.6623C11.879 15.1881 12.152 14.5528 12.3578 13.8519C12.6439 12.8774 12.8 11.7763 12.9376 10.8058C12.9989 10.3733 13.0566 9.96673 13.1204 9.60889C13.2697 8.77213 13.4528 8.20179 13.7958 8.18909C13.9599 8.19395 14.0874 8.32678 14.1921 8.55562C14.3999 9.0098 14.518 9.84218 14.6542 10.8029C14.9522 12.9054 15.3375 15.6227 16.9418 16.3366C17.5594 16.6114 18.3042 16.5775 18.8886 16.2387C19.3225 15.9871 19.659 15.578 19.9252 15.0741C20.1768 14.598 20.3656 14.0371 20.5145 13.4445C20.7317 12.5803 20.8641 11.6485 20.9828 10.8133Z" fill="#A451F7"/>
</svg>
