<svg width="23" height="23" viewBox="0 0 23 23" fill="none" xmlns="http://www.w3.org/2000/svg">
<path fill-rule="evenodd" clip-rule="evenodd" d="M2.10531 13.9497C2.09792 13.9643 2.09054 13.9789 2.08562 13.9936C1.96752 14.2571 1.83964 14.3937 1.74128 14.4815C1.10196 14.9107 0.65953 14.7641 0.65953 14.7641L0.53187 14.3248C0.197948 13.2803 0.0115485 12.1676 0.0119962 11.0061C0.0143358 4.93511 4.98193 0.00801721 11.0981 0.0103743C15.346 0.0120113 19.0423 2.39498 20.8896 5.88992C20.4327 6.13096 20.0789 6.54656 19.7994 7.06811C19.1448 8.2895 18.8982 10.092 18.6926 11.5945C18.4851 13.111 18.3194 14.3219 17.8184 14.3217C17.6807 14.3217 17.5628 14.224 17.4645 14.0483C17.3639 13.842 17.2836 13.5481 17.2129 13.1928C17.1248 12.7499 17.0515 12.2116 16.9721 11.6286C16.7883 10.2787 16.5718 8.68914 16.0629 7.4889C15.671 6.56441 15.1055 5.87093 14.2479 5.69594C13.9112 5.62726 13.5154 5.63405 13.1568 5.74486C12.2775 6.01659 11.7288 6.8639 11.361 7.92654C10.972 9.0507 10.7855 10.4159 10.6244 11.5955C10.4191 13.0987 10.2549 14.3007 9.76512 14.3186C9.5948 14.312 9.46389 14.163 9.35703 13.9085C9.15568 13.429 9.03969 12.5747 8.90625 11.592C8.84557 11.1451 8.78127 10.6716 8.7037 10.1946C8.46557 8.73057 8.1023 7.23437 7.33411 6.37609C6.75694 5.73122 5.92772 5.48396 5.09486 5.74176C4.65983 5.87641 4.30563 6.15244 4.01419 6.52616C3.09241 7.70817 2.79833 9.86737 2.55942 11.6216C2.42915 12.5781 2.31528 13.4142 2.12499 13.9057C2.12007 13.9204 2.11269 13.935 2.10531 13.9497ZM20.9949 10.8275C21.1946 9.42632 21.3556 8.29671 21.813 8.21335C22.0486 9.10164 22.1761 10.0485 22.1855 11.0147C22.1832 17.0857 17.2156 22.0128 11.0994 22.0105C6.99906 22.0089 3.42067 19.8016 1.50449 16.5116C1.55366 16.5214 1.61265 16.5214 1.69132 16.5215C4.04385 16.5224 4.50769 13.2568 4.85435 10.8161C5.00521 9.75404 5.13388 8.84816 5.38633 8.43562C5.57005 8.13541 5.88216 8.13553 6.06565 8.43589C6.31779 8.84862 6.44576 9.75459 6.59579 10.8168C6.83641 12.5203 7.13379 14.6256 8.09114 15.7425C8.50558 16.226 9.0437 16.5243 9.75443 16.5246L9.76426 16.5246L9.7741 16.5246L9.78393 16.5246C10.5291 16.5249 11.0849 16.1977 11.5076 15.6729C11.8894 15.1988 12.1626 14.5636 12.3687 13.8628C12.6551 12.8884 12.8117 11.7873 12.9497 10.8169C13.0112 10.3844 13.069 9.97786 13.1329 9.62005C13.2825 8.78334 13.4658 8.21308 13.8089 8.20051C13.973 8.20543 14.1004 8.33831 14.2051 8.56719C14.4127 9.02145 14.5304 9.85387 14.6662 10.8147C14.9635 12.9173 15.3477 15.6347 16.9518 16.3492C17.5692 16.6243 18.314 16.5907 18.8985 16.2521C19.3326 16.0007 19.6692 15.5917 19.9356 15.0879C20.1874 14.6118 20.3764 14.0511 20.5255 13.4585C20.7431 12.5944 20.8758 11.6627 20.9949 10.8275Z" fill="#FFEB60"/>
</svg>
