<svg width="77" height="36" viewBox="0 0 77 36" fill="none" xmlns="http://www.w3.org/2000/svg">
<path d="M36.1165 3.05176C35.8426 3.05176 35.6129 3.14633 35.4273 3.32687C35.2417 3.50742 35.1445 3.73095 35.1445 3.98027C35.1445 4.24679 35.2417 4.47032 35.4273 4.65086C35.6129 4.8314 35.8426 4.92597 36.1165 4.92597C36.3816 4.92597 36.6026 4.8314 36.7881 4.65086C36.9737 4.47032 37.0709 4.24679 37.0709 3.98027C37.0709 3.72235 36.9737 3.50742 36.7881 3.32687C36.6114 3.14633 36.3816 3.05176 36.1165 3.05176Z" fill="white"/>
<path d="M36.1092 6.35352C35.8706 6.35352 35.6585 6.43949 35.4906 6.60284C35.3227 6.76619 35.2344 6.97252 35.2344 7.22185V16.2318C35.2344 16.4726 35.3227 16.6875 35.4906 16.8509C35.6585 17.0142 35.8706 17.1002 36.1092 17.1002C36.3566 17.1002 36.5775 17.0142 36.7454 16.8509C36.9133 16.6875 37.0017 16.4812 37.0017 16.2318V7.22185C37.0017 6.98112 36.9133 6.77478 36.7454 6.60284C36.5687 6.43949 36.3566 6.35352 36.1092 6.35352Z" fill="white"/>
<path d="M49.804 3.05176C49.5301 3.05176 49.3004 3.14633 49.1148 3.32687C48.9292 3.50742 48.832 3.73095 48.832 3.98027C48.832 4.24679 48.9292 4.47032 49.1148 4.65086C49.3004 4.8314 49.5301 4.92597 49.804 4.92597C50.0691 4.92597 50.2901 4.8314 50.4756 4.65086C50.6612 4.47032 50.7584 4.24679 50.7584 3.98027C50.7584 3.72235 50.6612 3.50742 50.4756 3.32687C50.2901 3.14633 50.0691 3.05176 49.804 3.05176Z" fill="white"/>
<path d="M49.7889 6.35352C49.5503 6.35352 49.3382 6.43949 49.1703 6.60284C49.0024 6.76619 48.9141 6.97252 48.9141 7.22185V16.2318C48.9141 16.4726 49.0024 16.6875 49.1703 16.8509C49.3382 17.0142 49.5503 17.1002 49.7889 17.1002C50.0363 17.1002 50.2572 17.0142 50.4251 16.8509C50.593 16.6875 50.6814 16.4812 50.6814 16.2318V7.22185C50.6814 6.98112 50.593 6.77478 50.4251 6.60284C50.2572 6.43949 50.0451 6.35352 49.7889 6.35352Z" fill="white"/>
<path d="M40.6951 1.9082C40.4565 1.9082 40.2445 1.99418 40.0766 2.15753C39.9087 2.32087 39.8203 2.52721 39.8203 2.77653V16.2314C39.8203 16.4721 39.9087 16.687 40.0766 16.8504C40.2445 17.0137 40.4565 17.0997 40.6951 17.0997C40.9425 17.0997 41.1635 17.0137 41.3314 16.8504C41.4992 16.687 41.5876 16.4807 41.5876 16.2314V2.77653C41.5876 2.53581 41.4992 2.32947 41.3314 2.15753C41.1635 1.99418 40.9514 1.9082 40.6951 1.9082Z" fill="white"/>
<path d="M45.2967 1.9082C45.0581 1.9082 44.846 1.99418 44.6781 2.15753C44.5102 2.32087 44.4219 2.52721 44.4219 2.77653V16.2314C44.4219 16.4721 44.5102 16.687 44.6781 16.8504C44.846 17.0137 45.0581 17.0997 45.2967 17.0997C45.5441 17.0997 45.765 17.0137 45.9329 16.8504C46.1008 16.687 46.1892 16.4807 46.1892 16.2314V2.77653C46.1892 2.53581 46.1008 2.32947 45.9329 2.15753C45.765 1.99418 45.5441 1.9082 45.2967 1.9082Z" fill="white"/>
<path d="M31.5403 7.22149C30.4358 7.41923 31.2576 14.2713 28.1559 14.5378C28.1559 14.5378 28.1559 14.5378 28.1471 14.5378C28.1294 14.5378 28.1206 14.5378 28.1029 14.5378C28.0676 14.5378 28.0234 14.5464 27.9792 14.5464H27.9704H27.9615C24.5948 14.5464 25.5315 7.24728 24.3474 7.21289C23.1633 7.25588 24.1 14.5464 20.7333 14.5464H20.7245H20.7156H20.7068C17.3312 14.5464 18.2856 7.21289 17.0838 7.21289C15.8821 7.21289 16.8364 14.5464 13.4609 14.5464C13.3902 14.5464 13.3372 14.5464 13.293 14.5378C15.0161 17.4351 18.2326 19.3781 21.9174 19.3781C27.4137 19.3781 31.8761 15.0365 31.8761 9.68892C31.8673 8.83779 31.7524 8.00384 31.5403 7.22149Z" fill="white"/>
<path d="M13.8137 12.32C13.8226 12.2942 13.8402 12.2684 13.8491 12.2426C14.4765 10.6521 14.176 4.96926 17.0832 4.96926C17.0921 4.96926 17.0921 4.96926 17.1009 4.96926H17.1097C17.1097 4.96926 17.1097 4.96926 17.1186 4.96926H17.1274C17.1451 4.96926 17.1627 4.96926 17.1804 4.96926C17.2158 4.96926 17.2511 4.96926 17.2776 4.97785C17.313 4.97785 17.3395 4.98645 17.366 4.98645C17.4013 4.98645 17.4367 4.99505 17.4632 5.00365C17.472 5.00365 17.4809 5.00365 17.4809 5.00365C20.3969 5.56247 19.5751 12.5607 20.715 12.6037C21.8991 12.5607 20.9624 4.96926 24.3291 4.96926H24.338H24.3468C27.3247 4.96926 26.9359 10.9616 27.634 12.363C27.7224 12.5177 27.8284 12.6037 27.9521 12.6037C29.039 12.6037 28.3674 6.38781 30.7091 5.17559C29.0478 2.09775 25.7253 0 21.9079 0C16.4116 0 11.9492 4.34165 11.9492 9.68919C11.9492 10.7123 12.1171 11.6924 12.4176 12.6123L12.5324 12.9992C12.5324 12.9992 12.9301 13.1281 13.5044 12.7498C13.5928 12.6725 13.7077 12.5521 13.8137 12.32Z" fill="white"/>
<path d="M55.1227 12.6814H61.7677C62.0152 12.6814 62.2272 12.604 62.3863 12.4493C62.5365 12.3031 62.616 12.1312 62.6337 11.9249C62.5807 9.27688 60.5306 7.14474 57.9769 7.11035C57.9504 7.11035 57.9327 7.11035 57.915 7.11035C57.3318 7.11035 56.7663 7.22212 56.2449 7.42845C56.0063 7.51443 55.7854 7.61759 55.5645 7.73796C54.8223 8.15923 54.2302 8.74384 53.8149 9.49181C53.4703 10.1108 53.267 10.7986 53.214 11.5466C53.2052 11.6068 53.2052 11.6755 53.1963 11.7357C53.1963 11.8217 53.1875 11.9163 53.1875 12.0022C53.1875 12.0108 53.1875 12.0108 53.1875 12.0194C53.1875 12.0194 53.1875 12.0194 53.1875 12.028C53.1875 12.9651 53.4084 13.8163 53.8502 14.5556C53.9739 14.762 54.1153 14.9597 54.2656 15.1403C55.1315 16.2321 56.4393 16.9285 57.915 16.9285C57.9857 16.9285 58.0476 16.9285 58.1183 16.9199C58.2066 16.9199 58.2862 16.9285 58.3745 16.9285C58.9312 16.9285 59.5233 16.8253 60.1241 16.6276C60.7339 16.4299 61.2464 16.1633 61.6529 15.8538C61.7677 15.7679 61.8561 15.6733 61.9003 15.5615C61.9621 15.4498 61.9886 15.3294 61.9886 15.1918C61.9886 14.7362 61.6087 14.3665 61.1403 14.3665C60.9018 14.3665 60.6897 14.4611 60.5395 14.6072C60.5041 14.6244 60.4688 14.6502 60.4334 14.676C60.186 14.8651 59.8591 15.0199 59.4791 15.1489C59.0903 15.2778 58.7191 15.338 58.3657 15.338C57.4644 15.338 56.6956 15.0887 56.0682 14.59C55.5115 14.1516 55.1492 13.5755 54.9813 12.8792L54.9636 12.819C54.946 12.6986 55.1227 12.6814 55.1227 12.6814ZM57.915 8.70086C59.3642 8.70086 60.566 9.64656 60.7869 10.8158C60.7869 10.8244 60.778 11.1167 60.4599 11.1855C60.4511 11.1855 60.4423 11.1855 60.4334 11.1941C60.3539 11.1941 60.2744 11.1941 60.2125 11.1941C59.7177 11.1941 59.1698 11.1941 57.9592 11.1941C57.1197 11.1941 56.5895 11.1683 55.3613 11.1855C55.0873 11.1253 55.0432 10.8932 55.0432 10.833C55.2464 9.65516 56.457 8.70086 57.915 8.70086Z" fill="white"/>
<path d="M3.97608 33.3866C6.33049 33.3866 7.95215 31.6434 7.95215 28.7973C7.95215 25.9513 6.33049 24.2793 3.97608 24.2793C1.62166 24.2793 0 25.9395 0 28.7973C0 31.6434 1.62166 33.3866 3.97608 33.3866ZM3.97608 31.8687C2.65472 31.8687 1.81386 30.671 1.81386 28.7973C1.81386 26.9119 2.65472 25.7853 3.97608 25.7853C5.29743 25.7853 6.13829 26.9119 6.13829 28.7973C6.13829 30.671 5.29743 31.8687 3.97608 31.8687Z" fill="white"/>
<path d="M14.396 25.8327H15.5491C16.6903 25.8327 17.3149 26.1529 17.3149 27.1016C17.3149 28.0384 16.6903 28.5127 15.5491 28.5127H14.396V25.8327ZM19.4411 33.2205L17.363 29.6274C18.384 29.2361 19.0567 28.4179 19.0567 27.1016C19.0567 25.0857 17.5792 24.4453 15.7173 24.4453H12.6181V33.2205H14.396V29.9002H15.6332L17.4591 33.2205H19.4411Z" fill="white"/>
<path d="M23.736 33.2205H25.5139V24.4453H23.736V33.2205Z" fill="white"/>
<path d="M34.4508 33.3866C35.6881 33.3866 36.7331 32.9122 37.3338 32.3312V28.3704H34.1745V29.8053H35.7481V31.5366C35.4959 31.7501 35.0634 31.8687 34.631 31.8687C32.8892 31.8687 32.0003 30.7184 32.0003 28.8092C32.0003 26.9237 33.0333 25.7853 34.5109 25.7853C35.3157 25.7853 35.8202 26.1055 36.2526 26.5205L37.2016 25.4058C36.625 24.8248 35.7361 24.2793 34.4508 24.2793C32.0844 24.2793 30.1864 25.975 30.1864 28.8685C30.1864 31.7975 32.0243 33.3866 34.4508 33.3866Z" fill="white"/>
<path d="M42.1711 33.2205H43.9489V24.4453H42.1711V33.2205Z" fill="white"/>
<path d="M49.0659 33.2205H50.7477V29.6986C50.7477 28.6906 50.6155 27.5878 50.5314 26.6391H50.5915L51.4924 28.5246L54.0631 33.2205H55.8649V24.4453H54.1832V27.9435C54.1832 28.9396 54.3153 30.1018 54.4114 31.0149H54.3513L53.4624 29.1175L50.8798 24.4453H49.0659V33.2205Z" fill="white"/>
<path d="M62.663 29.6037L62.9272 28.6432C63.1915 27.7301 63.4558 26.734 63.684 25.7735H63.7321C63.9963 26.7221 64.2366 27.7301 64.5129 28.6432L64.7771 29.6037H62.663ZM65.7862 33.2205H67.6481L64.7892 24.4453H62.699L59.8521 33.2205H61.6539L62.2786 30.9674H65.1615L65.7862 33.2205Z" fill="white"/>
<path d="M71.6185 33.2205H77V31.7501H73.3963V24.4453H71.6185V33.2205Z" fill="white"/>
</svg>
