<svg width="96" height="29" viewBox="0 0 96 29" fill="none" xmlns="http://www.w3.org/2000/svg">
<rect x="0.517019" y="1.01289" width="94" height="27" rx="13.5" transform="rotate(0.0220808 0.517019 1.01289)" fill="#FFEB60" stroke="#A451F7"/>
<path d="M25.4065 14.8427L23.9545 14.8422C24.2311 13.2943 24.2315 12.1663 24.2319 11.1343L24.2323 10.1383L16.5643 10.1353L16.5638 11.4073L22.6838 11.4097C22.6834 12.3577 22.659 13.4377 22.3825 14.8415L15.4225 14.8389L15.422 16.1109L19.55 16.1125L19.5483 20.5525L21.1563 20.5531L21.158 16.1131L25.406 16.1147L25.4065 14.8427ZM27.5523 18.0955L33.6843 18.0979L33.6833 20.5939L35.2673 20.5945L35.2688 16.8505L27.5528 16.8475L27.5523 18.0955ZM32.2335 14.8453L32.2339 13.8853L35.3539 13.8865L35.3544 12.6385L29.2464 12.6362L29.247 11.1962L35.2589 11.1985L35.2594 9.95051L27.6754 9.94759L27.6739 13.8836L30.6499 13.8847L30.6495 14.8447L26.4615 14.8431L26.4611 16.1031L36.4451 16.107L36.4455 14.847L32.2335 14.8453ZM44.0048 14.4059C42.265 13.8652 41.5215 12.5689 41.522 11.2369L41.5224 10.1089L39.9144 10.1083L39.914 11.1043C39.9135 12.6043 39.1689 14.08 37.3207 14.6913L38.1482 15.9396C39.4084 15.4961 40.2607 14.6444 40.7411 13.5646C41.2087 14.5008 42.0125 15.2451 43.1763 15.6296L44.0048 14.4059ZM42.5749 19.3373C41.1589 19.3368 40.403 19.0485 40.4032 18.4245C40.4035 17.8125 41.1596 17.5248 42.5756 17.5253C43.9796 17.5259 44.7355 17.8142 44.7352 18.4262C44.735 19.0502 43.9789 19.3379 42.5749 19.3373ZM42.576 16.3013C40.272 16.3004 38.8317 17.0919 38.8312 18.4239C38.8307 19.7679 40.2704 20.5604 42.5744 20.5613C44.8664 20.5622 46.3067 19.7708 46.3072 18.4268C46.3077 17.0948 44.868 16.3022 42.576 16.3013ZM46.1897 12.0787L46.1907 9.52272L44.6067 9.52211L44.6041 16.0501L46.1881 16.0507L46.1892 13.3867L47.6532 13.3873L47.6537 12.0793L46.1897 12.0787ZM54.6485 12.742L52.3805 12.7411L52.3811 11.0731L54.6491 11.074L54.6485 12.742ZM50.8085 12.7405L49.4765 12.74L49.476 14L57.54 14.0031L57.5405 12.7431L56.2205 12.7426L56.2211 11.0746L57.6251 11.0751L57.6256 9.81513L49.4056 9.81196L49.4051 11.072L50.8091 11.0725L50.8085 12.7405ZM55.762 19.1984L51.238 19.1967L51.2384 18.0807L55.7624 18.0824L55.762 19.1984ZM58.5112 15.9475L58.5117 14.6875L48.5277 14.6836L48.5272 15.9436L52.7272 15.9452L52.7269 16.8452L49.6909 16.8441L49.6895 20.4321L57.3215 20.435L57.3229 16.847L54.3109 16.8459L54.3112 15.9459L58.5112 15.9475ZM61.1994 13.0325C61.1998 12.1325 61.824 11.5927 62.652 11.5931C63.468 11.5934 64.1038 12.1336 64.1034 13.0336C64.1031 13.9336 63.4669 14.4734 62.6509 14.4731C61.8229 14.4727 61.1991 13.9325 61.1994 13.0325ZM65.6394 13.0342C65.6401 11.4022 64.3325 10.2257 62.6525 10.2251C60.9605 10.2244 59.6521 11.3999 59.6514 13.0319C59.6508 14.6519 60.9584 15.8404 62.6504 15.8411C64.3304 15.8417 65.6388 14.6542 65.6394 13.0342ZM62.722 16.7291L61.138 16.7285L61.1366 20.3765L68.6606 20.3794L68.6611 19.1194L62.7211 19.1171L62.722 16.7291ZM68.2676 12.6872L68.2688 9.51923L66.6848 9.51862L66.6817 17.5586L68.2657 17.5592L68.2671 13.9832L69.7311 13.9838L69.7316 12.6878L68.2676 12.6872ZM72.6234 10.7449L71.0394 10.7443L71.0366 17.8843L71.8046 17.8846C72.9086 17.885 74.1806 17.8255 75.6208 17.5621L75.4893 16.23C74.4332 16.4216 73.4852 16.4932 72.6212 16.5169L72.6234 10.7449ZM78.5639 9.5112L78.5622 13.7712L77.5662 13.7708L77.5678 9.71481L76.0918 9.71425L76.0878 20.0462L77.5638 20.0468L77.5657 15.0548L78.5617 15.0552L78.5596 20.5632L80.0716 20.5638L80.0759 9.51178L78.5639 9.5112Z" fill="#542385"/>
</svg>
