<svg width="95" height="28" viewBox="0 0 95 28" fill="none" xmlns="http://www.w3.org/2000/svg">
<rect x="0.5" y="0.5" width="94" height="27" rx="13.5" stroke="white"/>
<path d="M25.3948 14.32H23.9428C24.2188 12.772 24.2188 11.644 24.2188 10.612V9.616H16.5508V10.888H22.6708C22.6708 11.836 22.6468 12.916 22.3708 14.32H15.4108V15.592H19.5388V20.032H21.1468V15.592H25.3948V14.32ZM27.5419 17.572H33.6739V20.068H35.2579V16.324H27.5419V17.572ZM32.2219 14.32V13.36H35.3419V12.112H29.2339V10.672H35.2459V9.424H27.6619V13.36H30.6379V14.32H26.4499V15.58H36.4339V14.32H32.2219ZM43.9929 13.876C42.2529 13.336 41.5089 12.04 41.5089 10.708V9.58H39.9009V10.576C39.9009 12.076 39.1569 13.552 37.3089 14.164L38.1369 15.412C39.3969 14.98 40.2489 14.128 40.7289 13.036C41.1969 13.972 42.0009 14.716 43.1649 15.1L43.9929 13.876ZM42.5649 18.808C41.1489 18.808 40.3929 18.52 40.3929 17.896C40.3929 17.284 41.1489 16.996 42.5649 16.996C43.9689 16.996 44.7249 17.284 44.7249 17.896C44.7249 18.52 43.9689 18.808 42.5649 18.808ZM42.5649 15.772C40.2609 15.772 38.8209 16.564 38.8209 17.896C38.8209 19.24 40.2609 20.032 42.5649 20.032C44.8569 20.032 46.2969 19.24 46.2969 17.896C46.2969 16.564 44.8569 15.772 42.5649 15.772ZM46.1769 11.548V8.992H44.5929V15.52H46.1769V12.856H47.6409V11.548H46.1769ZM54.636 12.208H52.368V10.54H54.636V12.208ZM50.796 12.208H49.464V13.468H57.528V12.208H56.208V10.54H57.612V9.28H49.392V10.54H50.796V12.208ZM55.752 18.664H51.228V17.548H55.752V18.664ZM58.5 15.412V14.152H48.516V15.412H52.716V16.312H49.68V19.912H57.312V16.312H54.3V15.412H58.5ZM61.1871 12.496C61.1871 11.596 61.8111 11.056 62.6391 11.056C63.4551 11.056 64.0911 11.596 64.0911 12.496C64.0911 13.396 63.4551 13.936 62.6391 13.936C61.8111 13.936 61.1871 13.396 61.1871 12.496ZM65.6271 12.496C65.6271 10.864 64.3191 9.688 62.6391 9.688C60.9471 9.688 59.6391 10.864 59.6391 12.496C59.6391 14.116 60.9471 15.304 62.6391 15.304C64.3191 15.304 65.6271 14.116 65.6271 12.496ZM62.7111 16.192H61.1271V19.84H68.6511V18.58H62.7111V16.192ZM68.2551 12.148V8.98H66.6711V17.02H68.2551V13.444H69.7191V12.148H68.2551ZM72.6101 10.204H71.0261V17.344H71.7941C72.8981 17.344 74.1701 17.284 75.6101 17.02L75.4781 15.688C74.4221 15.88 73.4741 15.952 72.6101 15.976V10.204ZM78.5501 8.968V13.228H77.5541V9.172H76.0781V19.504H77.5541V14.512H78.5501V20.02H80.0621V8.968H78.5501Z" fill="white"/>
</svg>
