<svg width="96" height="29" viewBox="0 0 96 29" fill="none" xmlns="http://www.w3.org/2000/svg">
<rect x="0.517019" y="1.01264" width="94" height="27" rx="13.5" transform="rotate(0.0220808 0.517019 1.01264)" fill="#A451F7" stroke="#A451F7"/>
<path d="M25.4065 14.8422L23.9545 14.8417C24.2311 13.2938 24.2315 12.1658 24.2319 11.1338L24.2323 10.1378L16.5643 10.1348L16.5638 11.4068L22.6838 11.4092C22.6834 12.3572 22.659 13.4372 22.3825 14.8411L15.4225 14.8384L15.422 16.1104L19.55 16.112L19.5483 20.552L21.1563 20.5526L21.158 16.1126L25.406 16.1142L25.4065 14.8422ZM27.5523 18.0951L33.6843 18.0974L33.6833 20.5934L35.2673 20.594L35.2688 16.85L27.5528 16.8471L27.5523 18.0951ZM32.2335 14.8449L32.2339 13.8849L35.3539 13.8861L35.3544 12.6381L29.2464 12.6357L29.247 11.1957L35.2589 11.198L35.2594 9.95002L27.6754 9.9471L27.6739 13.8831L30.6499 13.8842L30.6495 14.8442L26.4615 14.8426L26.4611 16.1026L36.4451 16.1065L36.4455 14.8465L32.2335 14.8449ZM44.0048 14.4054C42.265 13.8647 41.5215 12.5684 41.522 11.2364L41.5224 10.1084L39.9144 10.1078L39.914 11.1038C39.9135 12.6038 39.1689 14.0795 37.3207 14.6908L38.1482 15.9391C39.4084 15.4956 40.2607 14.6439 40.7411 13.5641C41.2087 14.5003 42.0125 15.2446 43.1763 15.6291L44.0048 14.4054ZM42.5749 19.3368C41.1589 19.3363 40.403 19.048 40.4032 18.424C40.4035 17.812 41.1596 17.5243 42.5756 17.5248C43.9796 17.5254 44.7355 17.8137 44.7352 18.4257C44.735 19.0497 43.9789 19.3374 42.5749 19.3368ZM42.576 16.3008C40.272 16.3 38.8317 17.0914 38.8312 18.4234C38.8307 19.7674 40.2704 20.56 42.5744 20.5608C44.8664 20.5617 46.3067 19.7703 46.3072 18.4263C46.3077 17.0943 44.868 16.3017 42.576 16.3008ZM46.1897 12.0782L46.1907 9.52223L44.6067 9.52162L44.6041 16.0496L46.1881 16.0502L46.1892 13.3862L47.6532 13.3868L47.6537 12.0788L46.1897 12.0782ZM54.6485 12.7415L52.3805 12.7406L52.3811 11.0726L54.6491 11.0735L54.6485 12.7415ZM50.8085 12.74L49.4765 12.7395L49.476 13.9995L57.54 14.0026L57.5405 12.7426L56.2205 12.7421L56.2211 11.0741L57.6251 11.0746L57.6256 9.81464L49.4056 9.81147L49.4051 11.0715L50.8091 11.072L50.8085 12.74ZM55.762 19.1979L51.238 19.1962L51.2384 18.0802L55.7624 18.0819L55.762 19.1979ZM58.5112 15.947L58.5117 14.687L48.5277 14.6831L48.5272 15.9431L52.7272 15.9448L52.7269 16.8448L49.6909 16.8436L49.6895 20.4316L57.3215 20.4345L57.3229 16.8465L54.3109 16.8454L54.3112 15.9454L58.5112 15.947ZM61.1994 13.032C61.1998 12.132 61.824 11.5923 62.652 11.5926C63.468 11.5929 64.1038 12.1331 64.1034 13.0331C64.1031 13.9331 63.4669 14.4729 62.6509 14.4726C61.8229 14.4723 61.1991 13.932 61.1994 13.032ZM65.6394 13.0337C65.6401 11.4017 64.3325 10.2252 62.6525 10.2246C60.9605 10.2239 59.6521 11.3994 59.6514 13.0314C59.6508 14.6514 60.9584 15.8399 62.6504 15.8406C64.3304 15.8412 65.6388 14.6537 65.6394 13.0337ZM62.722 16.7286L61.138 16.728L61.1366 20.376L68.6606 20.3789L68.6611 19.1189L62.7211 19.1166L62.722 16.7286ZM68.2676 12.6867L68.2688 9.51874L66.6848 9.51813L66.6817 17.5581L68.2657 17.5587L68.2671 13.9827L69.7311 13.9833L69.7316 12.6873L68.2676 12.6867ZM72.6234 10.7444L71.0394 10.7438L71.0366 17.8838L71.8046 17.8841C72.9086 17.8845 74.1806 17.825 75.6208 17.5616L75.4893 16.2295C74.4332 16.4211 73.4852 16.4928 72.6212 16.5164L72.6234 10.7444ZM78.5639 9.51071L78.5622 13.7707L77.5662 13.7703L77.5678 9.71433L76.0918 9.71376L76.0878 20.0458L77.5638 20.0463L77.5657 15.0543L78.5617 15.0547L78.5596 20.5627L80.0716 20.5633L80.0759 9.51129L78.5639 9.51071Z" fill="#FFEB60"/>
</svg>
